<svg xmlns="http://www.w3.org/2000/svg" viewBox="0 0 2380.5 605.9" enable-background="new 0 0 2380.5 605.9"><path fill="#4D6886" d="M1247.3 88.8h4v147h-4z"/><path stroke="#4D6886" stroke-width="6" stroke-miterlimit="10" fill="none" d="M1247.3 88.8h4v147h-4z"/><path fill="#4D6886" d="M1.7 290.9h552.3v9.9h-552.3zM579.5 44.5h-.2v253.2h4v-253.1c-1.3 0-2.6 0-3.8-.1"/><path stroke="#4D6886" stroke-width="6" stroke-miterlimit="10" d="M579.5 44.5h-.2v253.2h4v-253.1c-1.3 0-2.6 0-3.8-.1z" fill="none"/><path fill="#4D6886" d="M1089.3 156.8h4v79h-4z"/><path stroke="#4D6886" stroke-width="6" stroke-miterlimit="10" fill="none" d="M1089.3 156.8h4v79h-4z"/><path fill="#4D6886" d="M1249.3 195.8h117v4h-117z"/><path stroke="#4D6886" stroke-width="6" stroke-miterlimit="10" fill="none" d="M1249.3 195.8h117v4h-117z"/><path fill="#4D6886" d="M491.3 526h429v4h-429z"/><path stroke="#4D6886" stroke-width="6" stroke-miterlimit="10" fill="none" d="M491.3 526h429v4h-429z"/><path fill="#4D6886" d="M1565.5 202h353v4h-353z"/><path stroke="#4D6886" stroke-width="6" stroke-miterlimit="10" fill="none" d="M1565.5 202h353v4h-353z"/><path fill="#4D6886" d="M1490.1 408.2h428.4v4h-428.4z"/><path stroke="#4D6886" stroke-width="6" stroke-miterlimit="10" fill="none" d="M1490.1 408.2h428.4v4h-428.4z"/><path fill="#4D6886" d="M1399.3 305.8h81v4h-81z"/><path stroke="#4D6886" stroke-width="6" stroke-miterlimit="10" fill="none" d="M1399.3 305.8h81v4h-81z"/><path fill="#4D6886" d="M1188.1 167.8c-3.4 0-12.6-.6-19.1-6.7-4.5-4.2-6.7-10-6.7-17.4v-36h4v36c0 6.2 1.8 11.1 5.5 14.4 6.7 6.2 17.3 5.6 17.4 5.6h60.1v4h-59.9c-.2.1-.7.1-1.3.1"/><path stroke="#4D6886" stroke-width="6" stroke-miterlimit="10" d="M1188.1 167.8c-3.4 0-12.6-.6-19.1-6.7-4.5-4.2-6.7-10-6.7-17.4v-36h4v36c0 6.2 1.8 11.1 5.5 14.4 6.7 6.2 17.3 5.6 17.4 5.6h60.1v4h-59.9c-.2.1-.7.1-1.3.1" fill="none"/><path fill="#4D6886" d="M1540 308.8h-23.7v-4h23.4s3.7.2 5.9-1.8c1.2-1.1 1.7-2.7 1.7-4.8v-13.4l.3-65.2h4l-.3 65.2v13.4c0 3.2-1 5.8-3 7.7-2.9 2.6-6.8 2.9-8.3 2.9"/><path stroke="#4D6886" stroke-width="6" stroke-miterlimit="10" d="M1540 308.8h-23.7v-4h23.4s3.7.2 5.9-1.8c1.2-1.1 1.7-2.7 1.7-4.8v-13.4l.3-65.2h4l-.3 65.2v13.4c0 3.2-1 5.8-3 7.7-2.9 2.6-6.8 2.9-8.3 2.9" fill="none"/><path fill="#4D6886" d="M988.6 161.8h-65.5c-.1 0-12.6 1.2-20.7-6.1-4.7-4.2-7.1-10.6-7.1-18.9v-53.2c0-.2-1.2-15.6 6.7-24.1 3.5-3.8 8.3-5.7 14.3-5.7h58c.6 0 13.6.1 21.4-7.7 3.8-3.8 5.7-8.9 5.6-14.9v-3.4c-1.2.1-2.6.2-4 .2v3.2c.1 5-1.4 9-4.4 12.1-6.6 6.6-18.4 6.6-18.6 6.6h-58c-7.2 0-13 2.3-17.3 7-8.8 9.6-7.9 25.6-7.8 27.1v52.9c0 9.5 2.8 16.8 8.4 21.9 9.1 8.2 22.2 7.2 23.7 7.1h65.2c10.5 0 18.3 2.8 23.4 8.4 7.3 8 6.3 19.3 6.3 19.4v88.2h4v-87.9c.1-1.4.9-13.3-7.3-22.4-5.8-6.5-14.6-9.8-26.3-9.8"/><path stroke="#4D6886" stroke-width="6" stroke-miterlimit="10" d="M988.6 161.8h-65.5c-.1 0-12.6 1.2-20.7-6.1-4.7-4.2-7.1-10.6-7.1-18.9v-53.2c0-.2-1.2-15.6 6.7-24.1 3.5-3.8 8.3-5.7 14.3-5.7h58c.6 0 13.6.1 21.4-7.7 3.8-3.8 5.7-8.9 5.6-14.9v-3.4c-1.2.1-2.6.2-4 .2v3.2c.1 5-1.4 9-4.4 12.1-6.6 6.6-18.4 6.6-18.6 6.6h-58c-7.2 0-13 2.3-17.3 7-8.8 9.6-7.9 25.6-7.8 27.1v52.9c0 9.5 2.8 16.8 8.4 21.9 9.1 8.2 22.2 7.2 23.7 7.1h65.2c10.5 0 18.3 2.8 23.4 8.4 7.3 8 6.3 19.3 6.3 19.4v88.2h4v-87.9c.1-1.4.9-13.3-7.3-22.4-5.8-6.5-14.6-9.8-26.3-9.8z" fill="none"/><path fill="#4D6886" d="M829.6 272.9v4h-88.2c-.1 0-11.4-1-19.4 6.3-5.6 5.1-8.4 12.9-8.4 23.4v65.2c.1 1.5 1.1 14.6-7.1 23.7-5 5.6-12.4 8.4-21.9 8.4h-52.9c-1.5.1-17.5 1.1-27.1-7.8-4.6-4.3-7-10.1-7-17.3v-58c0-.1 0-12-6.6-18.6-3-3-7.1-4.5-12.1-4.4h-93.4v-4h93.5c6.1-.1 11.1 1.8 14.9 5.6 7.8 7.8 7.7 20.9 7.7 21.4v58c0 6 1.9 10.8 5.7 14.3 8.6 7.9 24 6.7 24.1 6.7h53.2c8.3 0 14.6-2.4 18.9-7.1 7.3-8.1 6.1-20.6 6.1-20.7v-65.5c0-11.7 3.3-20.5 9.7-26.4 9-8.2 21-7.4 22.4-7.3h87.9z"/><path stroke="#4D6886" stroke-width="6" stroke-miterlimit="10" d="M829.6 272.9v4h-88.2c-.1 0-11.4-1-19.4 6.3-5.6 5.1-8.4 12.9-8.4 23.4v65.2c.1 1.5 1.1 14.6-7.1 23.7-5 5.6-12.4 8.4-21.9 8.4h-52.9c-1.5.1-17.5 1.1-27.1-7.8-4.6-4.3-7-10.1-7-17.3v-58c0-.1 0-12-6.6-18.6-3-3-7.1-4.5-12.1-4.4h-93.4v-4h93.5c6.1-.1 11.1 1.8 14.9 5.6 7.8 7.8 7.7 20.9 7.7 21.4v58c0 6 1.9 10.8 5.7 14.3 8.6 7.9 24 6.7 24.1 6.7h53.2c8.3 0 14.6-2.4 18.9-7.1 7.3-8.1 6.1-20.6 6.1-20.7v-65.5c0-11.7 3.3-20.5 9.7-26.4 9-8.2 21-7.4 22.4-7.3h87.9z" fill="none"/><path fill="#4D6886" d="M1098.3 493.3v-57.5h-4v57.6c0 .1.3 12-6.2 18.8-3 3.1-7 4.6-11.9 4.6h-93.7c-.5 0-12.1-.5-19 6.2-3.4 3.2-5.1 7.5-5.1 12.7v2.6c1.3 0 2.7.1 4 .2v-2.8c0-4.1 1.3-7.4 3.8-9.8 5.7-5.5 16-5.1 16.2-5.1h93.8c6.1 0 11-2 14.8-5.8 7.6-8 7.3-21.2 7.3-21.7"/><path stroke="#4D6886" stroke-width="6" stroke-miterlimit="10" d="M1098.3 493.3v-57.5h-4v57.6c0 .1.3 12-6.2 18.8-3 3.1-7 4.6-11.9 4.6h-93.7c-.5 0-12.1-.5-19 6.2-3.4 3.2-5.1 7.5-5.1 12.7v2.6c1.3 0 2.7.1 4 .2v-2.8c0-4.1 1.3-7.4 3.8-9.8 5.7-5.5 16-5.1 16.2-5.1h93.8c6.1 0 11-2 14.8-5.8 7.6-8 7.3-21.2 7.3-21.7z" fill="none"/><path fill="#4D6886" d="M1485.3 535.1l-.1-64.3v-59.7c0-.1.9-11.1-5.4-17.9-3.3-3.6-8.1-5.4-14.2-5.4h-36.5v-4h36.5c7.3 0 13.1 2.3 17.1 6.7 7.2 7.8 6.5 19.6 6.4 20.9v59.4l.1 64.3h-3.9z"/><path stroke="#4D6886" stroke-width="6" stroke-miterlimit="10" d="M1485.3 535.1l-.1-64.3v-59.7c0-.1.9-11.1-5.4-17.9-3.3-3.6-8.1-5.4-14.2-5.4h-36.5v-4h36.5c7.3 0 13.1 2.3 17.1 6.7 7.2 7.8 6.5 19.6 6.4 20.9v59.4l.1 64.3h-3.9z" fill="none"/><path fill="#4D6886" d="M1342.3 516.8v14.8l.1 3.7c1.2-1 2.4-1.9 3.7-2.8 0-.7 0-1.3.2-1.9v-13.8c0-19.1-15.8-20-16-20h-47.8c-4.9 0-8.9-1.6-11.9-4.6-6.5-6.7-6.3-18.7-6.3-18.9v-77.5h-4v77.4c0 .6-.4 13.7 7.4 21.7 3.8 3.9 8.7 5.8 14.8 5.8h47.7c.5.1 12.1.8 12.1 16.1"/><path stroke="#4D6886" stroke-width="6" stroke-miterlimit="10" d="M1342.3 516.8v14.8l.1 3.7c1.2-1 2.4-1.9 3.7-2.8 0-.7 0-1.3.2-1.9v-13.8c0-19.1-15.8-20-16-20h-47.8c-4.9 0-8.9-1.6-11.9-4.6-6.5-6.7-6.3-18.7-6.3-18.9v-77.5h-4v77.4c0 .6-.4 13.7 7.4 21.7 3.8 3.9 8.7 5.8 14.8 5.8h47.7c.5.1 12.1.8 12.1 16.1z" fill="none"/><path fill="#4D6886" d="M1397.3 149.8h-4v-60.4c-.1-1.2-.7-12.3 6.1-19.8 4.1-4.5 9.9-6.8 17.4-6.8h36.5v4h-36.5c-6.3 0-11.1 1.8-14.4 5.4-6 6.5-5.1 16.8-5.1 16.9v60.7z"/><path stroke="#4D6886" stroke-width="6" stroke-miterlimit="10" d="M1397.3 149.8h-4v-60.4c-.1-1.2-.7-12.3 6.1-19.8 4.1-4.5 9.9-6.8 17.4-6.8h36.5v4h-36.5c-6.3 0-11.1 1.8-14.4 5.4-6 6.5-5.1 16.8-5.1 16.9v60.7z" fill="none"/><path fill="#4D6886" d="M1179.9 38.8h-31.3c-2.6 0-4.7 2.1-4.7 4.7v60.8c0 2.6 2.1 4.7 4.7 4.7h31.3c2.6 0 4.7-2.1 4.7-4.7v-60.8c.1-2.6-2-4.7-4.7-4.7m-20.6 3.4h10c.3 0 .6.3.6.6s-.3.6-.6.6h-10c-.3 0-.6-.3-.6-.6s.3-.6.6-.6m5 64.5c-1.3 0-2.4-1.1-2.4-2.4 0-1.3 1.1-2.4 2.4-2.4 1.3 0 2.4 1.1 2.4 2.4 0 1.3-1.1 2.4-2.4 2.4m17.1-6.4h-34.2v-54h34.2v54z"/><path fill="#4BAFE8" d="M1529 484.9l-1-5.2-15 .6c.1.6.4 1.1.9 1.5l21.6 17.1c.5.4 1.1.5 1.6.5l-2.9-14.7-5.2.2zM1550.6 482.3c-.1-.6-.4-1.1-.9-1.5l-21.6-17.1c-.5-.4-1.1-.5-1.6-.5l3.9 19.8 20.2-.7zM1525.1 463.9l-11.8 15 14.5-.5zM1535.6 484.6l2.9 14.2 11.8-14.9zM1288.9 171.2l-1.1-3.2-9.5 1.9c.1.3.4.7.7.9l15.5 8.7c.3.2.7.2 1.1.1l-3.3-9.1-3.4.7zM1302.4 167.4c-.1-.3-.3-.7-.7-.9l-15.5-8.7c-.3-.2-.7-.2-1.1-.1l4.5 12.2 12.8-2.5zM1284.3 158.2l-6 10.8 9.2-1.8zM1293.1 170.3l3.3 8.8 6-10.7zM978.2 212.5l-5.3-1.9-7.5 14.2c.6.2 1.2.2 1.8 0l27.5-10.8c.6-.2 1.1-.7 1.3-1.2l-15.2-5.3-2.6 5zM987.5 191c-.6-.2-1.2-.2-1.8 0l-27.5 10.8c-.6.2-1.1.7-1.3 1.2l20.5 7.1 10.1-19.1zM956.7 204.8l7.5 19 7.3-13.8zM981.5 206.1l14.8 5.1-7.5-19.1zM1091.3 149l-5.8-5.1-16.5 14.2c.6.6 1.4.9 2.3.9h40c.9 0 1.7-.3 2.3-.9l-16.5-14.2-5.8 5.1zM1113.6 126.6c-.6-.6-1.4-.9-2.3-.9h-40c-.9 0-1.7.3-2.3.9l22.3 19.1 22.3-19.1zM1067.9 128.6v27.7l16.2-13.7zM1098.5 142.6l16.2 13.7v-27.7z"/><path fill="#fff" d="M665.4 307.3l-5.4 3.9 2.1 6.4c.1.3 0 .7-.3.9-.1.1-.3.2-.5.2s-.3-.1-.5-.2l-5.4-3.9-5.4 3.9c-.3.2-.7.2-1 0-.3-.2-.4-.6-.3-.9l2.1-6.4-5.4-3.9c-.3-.2-.4-.6-.3-.9.1-.3.4-.6.8-.6h6.7l2.1-6.4c.1-.3.4-.6.8-.6s.7.2.8.6l2.1 6.4h6.7c.4 0 .7.2.8.6-.1.3-.2.7-.5.9M936.2 242.4l-5.4 3.9 2.1 6.4c.1.3 0 .7-.3.9-.1.1-.3.2-.5.2s-.3-.1-.5-.2l-5.4-3.9-5.4 3.9c-.3.2-.7.2-1 0-.3-.2-.4-.6-.3-.9l2.1-6.4-5.4-3.9c-.3-.2-.4-.6-.3-.9.1-.3.4-.6.8-.6h6.7l2.1-6.4c.1-.3.4-.6.8-.6s.7.2.8.6l2.1 6.4h6.7c.4 0 .7.2.8.6-.1.3-.2.7-.5.9M556.9 359.5l-5.4 3.9 2.1 6.4c.1.3 0 .7-.3.9-.1.1-.3.2-.5.2s-.3-.1-.5-.2l-5.4-3.9-5.4 3.9c-.3.2-.7.2-1 0-.3-.2-.4-.6-.3-.9l2.1-6.4-5.4-3.9c-.3-.2-.4-.6-.3-.9.1-.3.4-.6.8-.6h6.7l2.1-6.4c.1-.3.4-.6.8-.6s.7.2.8.6l2.1 6.4h6.7c.4 0 .7.2.8.6-.1.3-.2.7-.5.9M518.6 53.3l-5.4 3.9 2.1 6.4c.1.3 0 .7-.3.9-.1.1-.3.2-.5.2s-.3-.1-.5-.2l-5.4-3.9-5.4 3.9c-.3.2-.7.2-1 0-.3-.2-.4-.6-.3-.9l2.1-6.4-5.4-3.9c-.3-.2-.4-.6-.3-.9.1-.3.4-.6.8-.6h6.7l2.1-6.4c.1-.3.4-.6.8-.6s.7.2.8.6l2.1 6.4h6.7c.4 0 .7.2.8.6-.1.3-.2.7-.5.9M1626.1 320.2l-5.4 3.9 2.1 6.4c.1.3 0 .7-.3.9-.1.1-.3.2-.5.2s-.3-.1-.5-.2l-5.4-3.9-5.4 3.9c-.3.2-.7.2-1 0-.3-.2-.4-.6-.3-.9l2.1-6.4-5.4-3.9c-.3-.2-.4-.6-.3-.9.1-.3.4-.6.8-.6h6.7l2.1-6.4c.1-.3.4-.6.8-.6s.7.2.8.6l2.1 6.4h6.7c.4 0 .7.2.8.6-.1.3-.2.7-.5.9"/><path fill="#4D6886" d="M1231.1 94.7h91.7c4 0 7.2-3.2 7.2-7.2v-63.2c0-4-3.2-7.2-7.2-7.2h-91.7c-4 0-7.2 3.2-7.2 7.2v63.2c0 4 3.2 7.2 7.2 7.2"/><path stroke="#4D6886" stroke-width="6" stroke-miterlimit="10" d="M1231.1 94.7h91.7c4 0 7.2-3.2 7.2-7.2v-63.2c0-4-3.2-7.2-7.2-7.2h-91.7c-4 0-7.2 3.2-7.2 7.2v63.2c0 4 3.2 7.2 7.2 7.2" fill="none"/><path fill="#fff" d="M1323 60.2c-2.4 0-4.3-1.9-4.3-4.3s1.9-4.3 4.3-4.3 4.3 1.9 4.3 4.3-1.9 4.3-4.3 4.3"/><path fill="#fff" d="M1232.5 24.4h82.4v63.1h-82.4z"/><path fill="#4D6886" d="M1506.3 63.8h423v4h-423z"/><path stroke="#4D6886" stroke-width="6" stroke-miterlimit="10" fill="none" d="M1506.3 63.8h423v4h-423z"/><path fill="#4BAFE8" d="M1549.6 211.5l5.8-5.1 16.5 14.2c-.6.6-1.4.9-2.3.9h-40c-.9 0-1.7-.3-2.3-.9l16.5-14.2 5.8 5.1zM1527.3 189c.6-.6 1.4-.9 2.3-.9h40c.9 0 1.7.3 2.3.9l-22.3 19.1-22.3-19.1zM1573 191v27.8l-16.2-13.8zM1542.4 205l-16.2 13.8v-27.8z"/><path fill="#4D6886" d="M1501.4 3.8h-43.8c-2.8 0-5.3 1.7-5.3 4.5v63.6c0 2.8 2.6 4.9 5.3 4.9h43.8c2.8 0 4.9-2.2 4.9-4.9v-63.6c0-2.8-2.1-4.5-4.9-4.5m-21.9 71.2c-1.6 0-3-1.3-3-3 0-1.6 1.3-3 3-3 1.6 0 3 1.3 3 3 0 1.6-1.3 3-3 3m21.8-8.2h-44v-57h44v57zM855.1 110.3v62.2c0 3.9 3.2 7.1 7.1 7.1h90.1c3.9 0 7.1-3.2 7.1-7.1v-62.2c0-3.9-3.2-7.1-7.1-7.1h-90.1c-3.9 0-7.1 3.2-7.1 7.1"/><path fill="#fff" d="M956.8 141.4c0 2.3-1.9 4.2-4.2 4.2-2.3 0-4.2-1.9-4.2-4.2 0-2.3 1.9-4.2 4.2-4.2 2.3-.1 4.2 1.8 4.2 4.2"/><path fill="#fff" d="M863.6 110.4h81v62h-81z"/><path fill="#4D6886" d="M1022.3 26.5c0-2.6-2.1-4.7-4.7-4.7h-60.6c-2.6 0-4.7 2.1-4.7 4.7v31.5c0 2.6 2.1 4.7 4.7 4.7h60.5c2.6 0 4.7-2.1 4.7-4.7v-31.5z"/><path fill="#fff" d="M956.3 47.5v-10c0-.3.2-.6.5-.6s.5.3.5.6v10c0 .3-.2.6-.5.6s-.5-.3-.5-.6M1020.5 42.5c0 1.3-1.1 2.4-2.4 2.4-1.3 0-2.4-1.1-2.4-2.4 0-1.3 1.1-2.4 2.4-2.4s2.4 1.1 2.4 2.4"/><path fill="#fff" d="M960.3 25.8h54v34h-54z"/><path fill="#4D6886" d="M942.7 485.9h-35.4v58h107v-58z"/><path fill="#fff" d="M1007.3 536.9h-94v-45h94v19z"/><path fill="#4D6886" d="M896.2 569h127.8l-1 3.1h-125.7zM1018 547.9h-113.2l-8.6 19h128.2l.3-1z"/><path fill="#fff" d="M904.7 559.9l4.2-9h103.1l3.6 9z"/><path fill="#4D6886" d="M1511.3 276h-27.1c-2.6 0-4.7 2.1-4.7 4.7v55c0 2.6 2.1 4.7 4.7 4.7h27.1c2.6 0 4.7-2.1 4.7-4.7v-55c-.1-2.6-2.2-4.7-4.7-4.7"/><path fill="#fff" d="M1483 283.9h29.4v44.2h-29.4zM1504 280.7h-12.5v-1.4h12.5v1.4zM1509.4 280.1c0 .7-.5 1.2-1.2 1.2s-1.2-.5-1.2-1.2.5-1.2 1.2-1.2c.6 0 1.2.5 1.2 1.2"/><path fill="#fff" d="M1492 331.8h11.4v3.5h-11.4z"/><path fill="#4D6886" d="M1439.9 602.9h91.7c4 0 7.2-3.2 7.2-7.2v-63.2c0-4-3.2-7.2-7.2-7.2h-91.7c-4 0-7.2 3.2-7.2 7.2v63.2c0 4 3.2 7.2 7.2 7.2"/><path stroke="#4D6886" stroke-width="6" stroke-miterlimit="10" d="M1439.9 602.9h91.7c4 0 7.2-3.2 7.2-7.2v-63.2c0-4-3.2-7.2-7.2-7.2h-91.7c-4 0-7.2 3.2-7.2 7.2v63.2c0 4 3.2 7.2 7.2 7.2" fill="none"/><path fill="#fff" d="M1531.8 568.4c-2.4 0-4.3-1.9-4.3-4.3s1.9-4.3 4.3-4.3 4.3 1.9 4.3 4.3c0 2.3-1.9 4.3-4.3 4.3"/><path fill="#fff" d="M1441.4 532.6h82.4v63.1h-82.4z"/><path fill="#4D6886" d="M673.6 354.8h-37.2v60.5h112.3v-60.5z"/><path fill="#fff" d="M740.1 407.9h-96.3v-46.900000000000006h96.3v19.5z"/><path fill="#4D6886" d="M625.4 440.9h132.8l-1 3.2h-130.6zM752 419h-117.7l-8.9 19.8h133.3l.3-1.1zM634.2 431.4l4.4-8.7h107.1l3.8 8.7zM1402 146.8h-35.7v58h108v-58z"/><path fill="#fff" d="M1467.3 197.8h-95v-45h95v19z"/><path fill="#4D6886" d="M1355.2 229.8h127.8l-1 3.1h-125.7zM1477 208.8h-113.2l-8.6 19h128.2l.3-1z"/><path fill="#fff" d="M1363.7 220.8l4.2-9h103.1l3.6 9z"/><path fill="#4D6886" d="M1643.8 350.6h-39.1c-3.7 0-6.8 3-6.8 6.8v79.4c0 3.7 3 6.8 6.8 6.8h39.1c3.7 0 6.8-3 6.8-6.8v-79.4c0-3.8-3-6.8-6.8-6.8"/><path fill="#fff" d="M1603.1 362h42.5v63.9h-42.5zM1633.4 357.4h-18.2v-1.9h18.2v1.9zM1641.1 356.5c0 1-.8 1.7-1.7 1.7-1 0-1.7-.8-1.7-1.7 0-1 .8-1.7 1.7-1.7.9 0 1.7.8 1.7 1.7"/><path fill="#fff" d="M1616 431.2h16.5v5.1h-16.5z"/><path fill="#4D6886" d="M913.3 387.8h-36.4c-7.3 0-13.1-2.3-17.2-6.7-7.1-7.7-6.5-19.3-6.4-20.5l.1-35.9h4l-.1 36.1c0 .1-.8 10.9 5.3 17.6 3.3 3.6 8.1 5.4 14.3 5.4h36.4v4z"/><path stroke="#4D6886" stroke-width="6" stroke-miterlimit="10" d="M913.3 387.8h-36.4c-7.3 0-13.1-2.3-17.2-6.7-7.1-7.7-6.5-19.3-6.4-20.5l.1-35.9h4l-.1 36.1c0 .1-.8 10.9 5.3 17.6 3.3 3.6 8.1 5.4 14.3 5.4h36.4v4z" fill="none"/><path fill="#4BAFE8" d="M1390.1 524.5c0 9.1-7.3 16.5-16.3 16.5h-50.6c-9 0-16.3-7.4-16.3-16.5 0-8.2 6-15 13.8-16.3-.1-.6-.2-1.2-.2-1.8 0-5.8 4.6-10.4 10.4-10.4 2.6 0 4.9.9 6.7 2.5 3.2-7.3 7.3-14 18.9-14 14 0 20.7 10.9 20.7 22.4 0 .5 0 1-.1 1.4 7.4 1.6 13 8.3 13 16.2"/><path fill="#fff" d="M964.1 476.1c1.7 1 2.3 3.1 1.3 4.8-1 1.7-3.1 2.3-4.8 1.3-1.7-1-2.3-3.1-1.3-4.8.9-1.7 3.1-2.3 4.8-1.3"/><path fill="#fff" d="M973.9 475.9c0-.1 0-.1-.1-.2l-.1-.2v-.1c-1.9-5.9-8.1-9.2-14.1-7.6l-.7.2-1 .3c-1.2.3-1.9 1.6-1.5 2.7.3 1.2 1.6 1.9 2.7 1.6l1.7-.5c3.8-1 7.7 1.2 8.8 5l.3 1.2c.3 1.2 1.5 1.9 2.7 1.5.6-.2 1-.5 1.3-1 .3-.5.4-1.1.2-1.7l-.2-1.2zM981.3 475.1l-.3-1-.2-.8c0-.1-.1-.3-.2-.4-3.3-9.4-13.2-14.8-23-12.3h-.1l-1.8.5c-1.1.3-1.7 1.4-1.4 2.5.3 1.1 1.4 1.7 2.5 1.4l1.8-.5c7.9-2 16 2.5 18.3 10.3l.4 1.4c.3 1.1 1.4 1.7 2.5 1.4 1.2-.3 1.8-1.4 1.5-2.5"/><path fill="#4BAFE8" d="M1428.5 473.6l-1.3-.4 1.2-3.7c1.3-4.1-.8-8.3-4.9-9.6-4.1-1.3-8.2 1.1-9.4 5.2l-1.2 3.7-1.4-.4c-.6-.2-1.7.2-1.9.8l-4.4 14.2c-.2.6.7 1 1.3 1.2l16.9 5.2c.6.2.7.1.9-.5l4.4-14.2c.2-.6.4-1.4-.2-1.5m-4.1-1.3l-8.6-2.7 1.2-3.7c.8-2.5 3.2-4.1 5.7-3.3 2.5.8 3.7 3.4 2.9 5.9l-1.2 3.8zM1106.4 66l-1.6.5-1.4-4.7c-1.6-5.2-6.8-8.2-11.9-6.6-5.2 1.6-7.8 7-6.3 12.1l1.4 4.7-1.7.5c-.8.2-1.6 1.5-1.4 2.2l5.5 18.1c.2.8 1.4.6 2.2.3l21.5-6.5c.8-.2.8-.4.6-1.2l-5.5-18.1c-.3-.6-.7-1.5-1.4-1.3m-5.2 1.6l-10.9 3.3-1.4-4.7c-1-3.2.5-6.5 3.7-7.5s6.3 1 7.2 4.2l1.4 4.7zM666.7 288.9l-2.2.6-2-5.9c-2.2-6.5-9.5-10.2-16.7-8.3-7.3 1.9-11 8.7-8.8 15.1l2 5.9-2.4.6c-1.1.3-2.3 1.8-2 2.8l7.7 22.5c.3.9 2 .7 3.1.4l30.2-8.1c1.1-.3 1.1-.5.8-1.4l-7.7-22.5c-.5-.9-1-2-2-1.7m-7.4 2l-15.3 4.1-2-5.9c-1.4-4 .7-8.1 5.2-9.3 4.5-1.2 8.8 1.2 10.1 5.2l2 5.9zM508.5 301.3c0 7.3 5.9 13.3 13.2 13.3h40.8c7.3 0 13.2-5.9 13.2-13.3 0-6.6-4.8-12.1-11.1-13.1.1-.5.1-.9.1-1.4 0-4.6-3.7-8.4-8.3-8.4-2.1 0-3.9.7-5.4 2-2.6-5.9-5.9-11.3-15.2-11.3-11.3 0-16.7 8.8-16.7 18.1v1.2c-6 1.1-10.6 6.4-10.6 12.9M1365.9 137.6c-.8 5.2-5.7 8.8-10.8 7.9l-28.9-4.6c-5.2-.8-8.7-5.7-7.9-10.9.7-4.7 4.8-8 9.3-8.1 0-.3 0-.7.1-1 .5-3.3 3.6-5.5 6.9-5 1.5.2 2.7 1 3.6 2 2.5-3.9 5.5-7.3 12.1-6.3 8 1.3 10.8 8.1 9.8 14.7 0 .3-.1.5-.2.8 4.1 1.7 6.7 6 6 10.5M1551.1 396.2c0 4.2-3.4 7.6-7.6 7.6h-23.5c-4.2 0-7.6-3.4-7.6-7.6 0-3.8 2.8-7 6.4-7.5l-.1-.8c0-2.7 2.2-4.8 4.8-4.8 1.2 0 2.3.4 3.1 1.1 1.5-3.4 3.4-6.5 8.8-6.5 6.5 0 9.6 5.1 9.6 10.4v.7c3.5.7 6.1 3.7 6.1 7.4"/><path fill="#fff" d="M1197.5 3.8c0 2.1-1.7 3.8-3.8 3.8-2.1 0-3.8-1.7-3.8-3.8 0-2.1 1.7-3.8 3.8-3.8 2.1 0 3.8 1.7 3.8 3.8M1129.5 25.8c0 2.1-1.7 3.8-3.8 3.8-2.1 0-3.8-1.7-3.8-3.8 0-2.1 1.7-3.8 3.8-3.8 2.1 0 3.8 1.7 3.8 3.8M1055.5 84.8c0 2.1-1.7 3.8-3.8 3.8-2.1 0-3.8-1.7-3.8-3.8 0-2.1 1.7-3.8 3.8-3.8 2.1 0 3.8 1.7 3.8 3.8M870.5 80.8c0 2.1-1.7 3.8-3.8 3.8s-3.8-1.7-3.8-3.8c0-2.1 1.7-3.8 3.8-3.8s3.8 1.7 3.8 3.8M853.5 207.8c0 2.1-1.7 3.8-3.8 3.8s-3.8-1.7-3.8-3.8c0-2.1 1.7-3.8 3.8-3.8s3.8 1.7 3.8 3.8M984.5 258.8c0 2.1-1.7 3.8-3.8 3.8-2.1 0-3.8-1.7-3.8-3.8 0-2.1 1.7-3.8 3.8-3.8 2.1 0 3.8 1.7 3.8 3.8M1118.5 213.8c0 2.1-1.7 3.8-3.8 3.8-2.1 0-3.8-1.7-3.8-3.8 0-2.1 1.7-3.8 3.8-3.8 2.1 0 3.8 1.7 3.8 3.8M1224.5 190.8c0 2.1-1.7 3.8-3.8 3.8-2.1 0-3.8-1.7-3.8-3.8 0-2.1 1.7-3.8 3.8-3.8 2.1 0 3.8 1.7 3.8 3.8M1345.5 174.8c0 2.1-1.7 3.8-3.8 3.8-2.1 0-3.8-1.7-3.8-3.8 0-2.1 1.7-3.8 3.8-3.8 2.1 0 3.8 1.7 3.8 3.8M1280.5 215.8c0 2.1-1.7 3.8-3.8 3.8-2.1 0-3.8-1.7-3.8-3.8 0-2.1 1.7-3.8 3.8-3.8 2.1 0 3.8 1.7 3.8 3.8M1352.5 262.8c0 2.1-1.7 3.8-3.8 3.8-2.1 0-3.8-1.7-3.8-3.8 0-2.1 1.7-3.8 3.8-3.8 2.1 0 3.8 1.7 3.8 3.8M1516.5 243.8c0 2.1-1.7 3.8-3.8 3.8-2.1 0-3.8-1.7-3.8-3.8 0-2.1 1.7-3.8 3.8-3.8 2.1 0 3.8 1.7 3.8 3.8M1500.5 186.8c0 2.1-1.7 3.8-3.8 3.8-2.1 0-3.8-1.7-3.8-3.8 0-2.1 1.7-3.8 3.8-3.8 2.1 0 3.8 1.7 3.8 3.8M1553.5 346.8c0 2.1-1.7 3.8-3.8 3.8-2.1 0-3.8-1.7-3.8-3.8 0-2.1 1.7-3.8 3.8-3.8 2.1 0 3.8 1.7 3.8 3.8M1462.5 423.8c0 2.1-1.7 3.8-3.8 3.8-2.1 0-3.8-1.7-3.8-3.8 0-2.1 1.7-3.8 3.8-3.8 2.1 0 3.8 1.7 3.8 3.8M1565.5 443.8c0 2.1-1.7 3.8-3.8 3.8-2.1 0-3.8-1.7-3.8-3.8 0-2.1 1.7-3.8 3.8-3.8 2.1 0 3.8 1.7 3.8 3.8M1864.8 541c0 2.1-1.7 3.8-3.8 3.8-2.1 0-3.8-1.7-3.8-3.8s1.7-3.8 3.8-3.8c2.1 0 3.8 1.7 3.8 3.8M1303.5 468.8c0 2.1-1.7 3.8-3.8 3.8-2.1 0-3.8-1.7-3.8-3.8 0-2.1 1.7-3.8 3.8-3.8 2.1 0 3.8 1.7 3.8 3.8M1228.5 469.8c0 2.1-1.7 3.8-3.8 3.8-2.1 0-3.8-1.7-3.8-3.8 0-2.1 1.7-3.8 3.8-3.8 2.1 0 3.8 1.7 3.8 3.8M1161.5 501.8c0 2.1-1.7 3.8-3.8 3.8-2.1 0-3.8-1.7-3.8-3.8 0-2.1 1.7-3.8 3.8-3.8 2.1 0 3.8 1.7 3.8 3.8M1003.5 531.8c0 2.1-1.7 3.8-3.8 3.8-2.1 0-3.8-1.7-3.8-3.8 0-2.1 1.7-3.8 3.8-3.8 2.1 0 3.8 1.7 3.8 3.8M857.5 411.8c0 2.1-1.7 3.8-3.8 3.8s-3.8-1.7-3.8-3.8c0-2.1 1.7-3.8 3.8-3.8s3.8 1.7 3.8 3.8M808.2 550.9c0 2.1-1.7 3.8-3.8 3.8s-3.8-1.7-3.8-3.8c0-2.1 1.7-3.8 3.8-3.8s3.8 1.7 3.8 3.8M1305.5 569.8c0 2.1-1.7 3.8-3.8 3.8-2.1 0-3.8-1.7-3.8-3.8 0-2.1 1.7-3.8 3.8-3.8 2.1 0 3.8 1.7 3.8 3.8M1416.5 517.8c0 2.1-1.7 3.8-3.8 3.8-2.1 0-3.8-1.7-3.8-3.8 0-2.1 1.7-3.8 3.8-3.8 2.1 0 3.8 1.7 3.8 3.8"/><path fill="#4D6886" d="M1319.8 220.8h-243.4c-3.3 0-6.1 2.2-6.1 5.6v168c0 3.3 2.8 6.4 6.1 6.4h90.9l.1 15h-12.5c-3.1 0-5.5 2.4-5.5 5.5s2.5 5.5 5.5 5.5h89.5c3.1 0 5.5-2.4 5.5-5.5s-2.5-5.5-5.5-5.5h-12.9l-.1-15h88.5c3.3 0 5.5-3.1 5.5-6.4v-168c-.1-3.4-2.3-5.6-5.6-5.6"/><path fill="#fff" d="M1314.3 370.4c0 3.5-2.8 6.3-6.3 6.3h-219.3c-3.5 0-6.3-2.8-6.3-6.3v-133.3c0-3.5 2.8-6.3 6.3-6.3h219.3c3.5 0 6.3 2.8 6.3 6.3v133.3z"/><path fill="#4D6886" d="M1104 281.8h-191.9c-2.6 0-4.8 1.8-4.8 4.4v132.4c0 2.6 2.2 5.1 4.8 5.1h191.9c2.6 0 4.3-2.4 4.3-5.1v-132.4c0-2.6-1.7-4.4-4.3-4.4"/><path fill="#fff" d="M1096.3 407.4c0 2.9-1.8 5.4-4.5 5.4h-170.4c-2.7 0-5.1-2.5-5.1-5.4v-110c0-2.9 2.4-5.6 5.1-5.6h170.4c2.7 0 4.5 2.7 4.5 5.6v110z"/><path fill="#4D6886" d="M1125.3 437.8c0 1.1-.9 2-2 2h-232c-1.1 0-2-.9-2-2v-8c0-1.1.9-2 2-2h232c1.1 0 2 .9 2 2v8zM1389.4 280.9h-94.6c-6 0-10.8 4.8-10.8 10.8v137.2c0 5.9 4.8 10.8 10.8 10.8h94.6c5.9 0 10.8-4.8 10.8-10.8v-137.2c0-6-4.8-10.8-10.8-10.8"/><path fill="#fff" d="M1342.1 435.6c-3.5 0-6.4-2.9-6.4-6.4 0-3.5 2.9-6.4 6.4-6.4 3.5 0 6.4 2.9 6.4 6.4 0 3.6-2.9 6.4-6.4 6.4"/><path fill="#fff" d="M1294.9 293.9h94.4v123.4h-94.4z"/><path fill="#4D6886" d="M1422.4 329.2h-46.6c-4.5 0-8.1 3.6-8.1 8.1v94.7c0 4.4 3.6 8.1 8.1 8.1h46.6c4.5 0 8.1-3.6 8.1-8.1v-94.7c0-4.5-3.6-8.1-8.1-8.1"/><path fill="#fff" d="M1373.8 342.8h50.7v76.2h-50.7zM1409.9 337.4h-21.6v-2.4h21.6v2.4zM1419.1 336.3c0 1.1-.9 2.1-2.1 2.1-1.1 0-2.1-.9-2.1-2.1 0-1.1.9-2.1 2.1-2.1 1.2.1 2.1 1 2.1 2.1"/><path fill="#fff" d="M1389.2 425.4h19.7v6.1h-19.7z"/><path fill="#4D6886" d="M877.3 250.8h-43.8c-2.8 0-5.2 1.5-5.2 4.2v63.6c0 2.8 2.4 5.2 5.2 5.2h43.8c2.8 0 5-2.5 5-5.2v-63.6c0-2.7-2.3-4.2-5-4.2m-21.9 70.9c-1.6 0-3-1.3-3-3 0-1.6 1.3-3 3-3 1.6 0 3 1.3 3 3-.1 1.7-1.4 3-3 3m21.9-7.9h-44v-57h44v57z"/><path fill="#4D6885" d="M1769.2 322.9l-32.8.1c-2 0-3.6-1.6-3.6-3.5l-.1-32.7c0-2 1.6-3.6 3.5-3.6l32.8-.1c2 0 3.6 1.6 3.6 3.5l.1 32.7c.1 2-1.5 3.6-3.5 3.6m-29.2-7l25.7-.1-.1-25.6-25.7.1.1 25.6z"/><path fill="#C9E3F4" d="M1786.8 328.3l-68 .2v-5.2c0-3.1 2.5-5.6 5.6-5.6l56.7-.2c3.1 0 5.6 2.5 5.6 5.6l.1 5.2z"/><path fill="#4D6885" d="M1786.8 331.1l-68 .2c-1.6 0-2.8-1.3-2.9-2.8v-5.2c0-4.7 3.8-8.5 8.4-8.5l56.7-.2c4.7 0 8.5 3.8 8.5 8.4v5.2c.2 1.7-1.1 2.9-2.7 2.9m-65.1-5.4l62.3-.2v-2.3c0-1.5-1.3-2.8-2.8-2.8l-56.7.2c-1.5 0-2.8 1.2-2.8 2.8v2.3z"/><path fill="#C9E3F4" d="M1858.1 284.4c0 3.1-2.5 5.6-5.6 5.6l-199.6.6c-3.1 0-5.6-2.5-5.6-5.6l-.4-130.1c0-3.1 2.5-5.6 5.6-5.6l205.2-.6.4 135.7z"/><path fill="#4D6885" d="M1852.5 292.9l-199.6.6c-4.7 0-8.5-3.8-8.5-8.4l-.4-130.1c0-4.7 3.8-8.5 8.4-8.5l205.2-.6c1.6 0 2.9 1.3 2.9 2.8l.4 135.7c.1 4.7-3.7 8.5-8.4 8.5m-200-140.8c-1.5 0-2.8 1.3-2.8 2.8l.4 130.1c0 1.5 1.3 2.8 2.8 2.8l199.6-.6c1.5 0 2.8-1.2 2.8-2.8l-.4-132.9-202.4.6z"/><path fill="#6692CC" d="M1656.137 158.391l192.4-.58.341 113.2-192.4.58z"/><path fill="#4D6885" d="M1848.9 273.2l-192.4.6c-1.2 0-2.1-.9-2.1-2.1l-.3-113.2c0-1.2 1-2.1 2.1-2.1l192.4-.6c1.2 0 2.1.9 2.1 2.1l.3 113.2c0 1.1-.9 2.1-2.1 2.1m-190.3-3.7l188.2-.6-.3-108.9-188.2.6.3 108.9z"/><path fill="#fff" d="M1786.3 271.4l-115.7.4-.4-133.5c0-4.7 3.8-8.5 8.4-8.5l98.8-.3c4.7 0 8.5 3.8 8.5 8.4l.4 133.5z"/><path fill="#4D6885" d="M1786.3 274.9l-115.7.4c-2 0-3.6-1.6-3.6-3.6l-.4-133.5c0-6.6 5.4-12 12-12.1l98.8-.3c6.6 0 12 5.4 12.1 12l.4 133.5c0 2-1.6 3.6-3.6 3.6m-112.2-6.8l108.6-.3-.4-130c0-2.7-2.2-4.9-4.9-4.9l-98.8.3c-2.7 0-4.9 2.2-4.9 4.9l.4 130z"/><path fill="#93C9ED" d="M1670.183 129.675l115.7-.348.049 16.3-115.7.348z"/><path fill="#4D6885" d="M1785.9 149.2l-115.7.4c-2 0-3.6-1.6-3.6-3.5v-16.3c0-2 1.6-3.6 3.5-3.6l115.7-.4c2 0 3.6 1.6 3.6 3.5v16.3c.1 2-1.5 3.6-3.5 3.6m-112.1-6.8l108.6-.3v-9.1l-108.6.3v9.1z"/><path fill="#6692CC" d="M1684.196 201.634l88-.266.023 7.7-88 .266z"/><path fill="#93C9ED" d="M1684.059 158.935l88-.268.098 32.1-88 .268z"/><path fill="#6692CC" d="M1684.296 218.554l33.9-.106.024 7.7-33.9.106z"/><path fill="#93C9ED" d="M1726.496 218.367l44.7-.132.023 7.7-44.7.132zM1684.296 235.735l88-.268.023 7.7-88 .268z"/><path fill="#6692CC" d="M1709.6 260.5h-25.2v-7.6l25.1-.1zM1718.996 252.78l52.4-.158.023 7.7-52.4.158z"/><path fill="#93C9ED" d="M1862.6 177.6c1.8 0 2.7-1.4 2.7-3.2v-9.3c0-1.8-1-3.2-2.8-3.2h-5c-.6-1.7-1.5-4.1-2.5-6l3.5-3.6c.6-.6.9-1.4.9-2.2 0-.8-.3-1.7-.9-2.2l-6.6-6.6c-1.2-1.2-3.3-1.2-4.5 0l-3.7 3.5c-1.9-1.1-3.7-1.9-6.3-2.6v-4.9c0-1.8-1-3.2-2.8-3.2h-9.3c-1.8 0-3.6 1.4-3.6 3.2v4.7c-1.7.6-4.1 1.5-6.1 2.6l-3.2-3.3c-1.2-1.2-3.2-1.2-4.4 0l-6.5 6.6c-.6.6-.9 1.4-.9 2.3 0 .8.3 1.6.9 2.2l3.2 3.2c-1.1 2-2 3.8-2.7 6.4h-4.5c-1.8 0-3.6 1.4-3.6 3.2v9.3c0 1.8 1.9 3.2 3.6 3.2h4.4c.6 2.6 1.6 4.4 2.7 6.5l-3.1 3.2c-.6.6-.9 1.4-.9 2.2 0 .8.3 1.7.9 2.2l6.6 6.6c1.2 1.2 3.3 1.2 4.5 0l3-3.2c2 1.1 4.4 2 6.2 2.6v4.6c0 1.8 1.9 3.2 3.6 3.2h9.3c1.8 0 2.7-1.4 2.7-3.2v-4.7c2.6-.6 4.5-1.5 6.4-2.7l3.5 3.4c1.2 1.2 3.3 1.2 4.5 0l6.6-6.6c.6-.6.9-1.4.9-2.2 0-.8-.3-1.6-.9-2.2l-3.5-3.5c1-1.9 1.9-4.4 2.5-6.1l5.2-.2zm-32.8 4.4c-6.7 0-12.1-5.4-12.1-12 0-6.7 5.4-12.1 12-12.1 6.7 0 12.1 5.4 12.1 12 .1 6.7-5.3 12.1-12 12.1"/><path fill="#4D6885" d="M1834.8 208h-9.3c-3.3 0-6.1-2.6-6.1-5.6v-2.8c-.9-.3-2.1-.8-3.1-1.3l-1.7 1.8c-2.3 2.3-5.9 2.3-8.1.1l-6.6-6.6c-1.1-1.1-1.7-2.5-1.7-4s.6-2.9 1.6-4l1.8-1.8c-.6-1.1-1.1-2.2-1.5-3.5h-2.6c-3.3 0-6.1-2.6-6.1-5.6v-9.3c0-3 2.8-5.7 6.1-5.7h2.6c.4-1.2.9-2.3 1.5-3.5l-1.9-1.9c-1.1-1.1-1.7-2.5-1.7-4s.6-2.9 1.6-4l6.5-6.6c2.2-2.2 5.8-2.2 8 0l1.9 2c1-.5 2.1-.9 3.1-1.3v-3c0-3 2.8-5.7 6.1-5.7h9.3c3 0 5.2 2.4 5.3 5.7v3c1.3.4 2.4.9 3.4 1.4l2.4-2.3c2.2-2.2 5.8-2.2 8 0l6.6 6.6c1.1 1.1 1.7 2.5 1.7 4s-.6 2.9-1.7 4l-2.3 2.3c.5 1 .9 2.1 1.2 3h3.3c3 0 5.2 2.4 5.3 5.7v9.3c0 3.3-2.2 5.7-5.2 5.7h-3.2l-1.2 3.1 2.2 2.2c1.1 1.1 1.7 2.5 1.7 4s-.6 2.9-1.7 4l-6.6 6.6c-2.2 2.2-5.8 2.2-8.1 0l-2.2-2.1c-1 .5-2.2 1-3.5 1.5v2.9c.2 3.3-2 5.7-5.1 5.7m-19.1-15.3c.4 0 .8.1 1.2.3 1.9 1.1 4.4 1.9 5.8 2.4 1 .3 1.7 1.3 1.7 2.4v4.6c0 .2.6.7 1.1.7h9.3c.1 0 .2-.2.2-.7v-4.8c0-1.2.8-2.2 1.9-2.4 2.3-.6 4-1.4 5.8-2.4 1-.6 2.2-.4 3 .4l3.5 3.4c.3.3.8.3 1 0l6.6-6.6c.1-.1.2-.3.2-.5s-.1-.4-.2-.5l-3.5-3.5c-.8-.8-1-2-.4-3 .9-1.7 1.7-4 2.3-5.6.3-1 1.3-1.8 2.4-1.8h5.1s.1-.2.1-.7v-9.3c0-.4-.1-.7-.2-.7h-5.1c-1.1 0-2-.7-2.4-1.7-.6-1.7-1.4-4-2.3-5.6-.5-1-.4-2.2.4-3l3.5-3.6c.1-.1.2-.3.2-.5s-.1-.4-.2-.5l-6.6-6.6c-.3-.3-.7-.3-1 0l-3.8 3.6c-.8.8-2 .9-2.9.4-1.8-1-3.4-1.8-5.7-2.3-1.1-.3-1.9-1.3-1.9-2.4v-4.9c0-.4-.1-.7-.2-.7h-9.4c-.6 0-1.1.5-1.1.7v4.7c0 1.1-.7 2-1.7 2.4-1.9.7-4 1.4-5.7 2.4-1 .5-2.2.4-3-.4l-3.2-3.3c-.2-.2-.6-.2-.9 0l-6.5 6.6c-.1.1-.2.3-.2.5s.1.4.2.5l3.2 3.2c.8.8 1 2 .4 3-1.1 2-1.9 3.5-2.4 5.8-.3 1.1-1.3 1.9-2.4 1.9h-4.5c-.6 0-1.1.5-1.1.7v9.3c0 .2.5.7 1.1.7h4.4c1.2 0 2.2.8 2.4 1.9.6 2.3 1.3 3.8 2.5 5.8.6 1 .4 2.2-.4 3l-3.1 3.2c-.1.1-.2.3-.2.5s.1.3.2.5l6.6 6.6c.3.3.7.3 1 0l2.9-3.1c.6-.7 1.3-1 2-1m14.1-8.2c-8 0-14.6-6.5-14.6-14.5s6.5-14.6 14.5-14.6 14.6 6.5 14.6 14.5c.1 8-6.4 14.6-14.5 14.6m0-24.1c-5.3 0-9.6 4.3-9.6 9.6s4.3 9.6 9.6 9.5c5.3 0 9.6-4.3 9.5-9.6 0-5.3-4.3-9.5-9.5-9.5"/><path fill="#93CEF1" d="M1247.2 566.6c-7.5-5.3-17.5-8.2-28.1-8.2-10.7 0-20.7 2.9-28.1 8.2-5.8 4.1-9.4 9.2-10.6 14.6h13.9v-6.6c0-2 1.7-3.7 3.7-3.7s3.7 1.7 3.7 3.7v6.6h34.7v-6.6c0-2 1.7-3.7 3.7-3.7 2.1 0 3.7 1.7 3.7 3.7v6.6h13.9c-1.1-5.4-4.7-10.5-10.5-14.6"/><path fill="#4D6886" d="M1251.5 560.5c-5.1-3.6-11.1-6.2-17.6-7.8 6.1-5.3 10-13.7 10-23.2 0-15.9-11.1-28.8-24.8-28.8-13.7 0-24.8 12.9-24.8 28.8 0 9.5 3.9 17.9 10 23.2-6.6 1.6-12.6 4.2-17.6 7.8-9.1 6.4-14.1 15.1-14.1 24.4 0 2 1.7 3.7 3.7 3.7h85.6c2 0 3.7-1.7 3.7-3.7 0-9.3-5-17.9-14.1-24.4m-49.8-30.9c0-11.8 7.8-21.4 17.4-21.4 9.6 0 17.4 9.6 17.4 21.4s-7.8 21.4-17.4 21.4c-9.6 0-17.4-9.6-17.4-21.4m42.2 51.6v-6.6c0-2.1-1.7-3.7-3.7-3.7-2.1 0-3.7 1.7-3.7 3.7v6.6h-34.7v-6.6c0-2.1-1.7-3.7-3.7-3.7-2.1 0-3.7 1.7-3.7 3.7v6.6h-13.9c1.1-5.4 4.8-10.5 10.6-14.6 7.5-5.3 17.5-8.2 28.1-8.2 10.7 0 20.7 2.9 28.1 8.2 5.8 4.1 9.4 9.2 10.6 14.6h-14zM1147.2 510.7c-1.9 0-3.8.3-5.6 1-4.2 1.5-7.5 4.5-9.4 8.5-1.9 4-2.1 8.5-.6 12.6 2.4 6.5 8.6 10.9 15.6 10.9 1.9 0 3.8-.3 5.6-1 8.6-3.1 13-12.6 9.9-21.2-2.4-6.4-8.6-10.8-15.5-10.8m3 24.9c-1 .4-2 .5-3 .5-3.7 0-7.1-2.4-8.4-5.9-.8-2.2-.7-4.7.3-6.8 1-2.2 2.8-3.8 5-4.6 1-.4 2-.5 3-.5 3.7 0 7.1 2.4 8.4 5.9 1.7 4.6-.7 9.8-5.3 11.4M1191.4 525.5l-4.5-.2c-.1-2.7-.5-5.3-1.2-7.9l4.3-1.6c2-.7 3-2.9 2.3-4.9-.7-2-2.9-3-4.9-2.3l-4.3 1.6c-1.1-2.4-2.5-4.7-4.1-6.8l3.4-3.1c1.6-1.4 1.7-3.8.2-5.4-1.4-1.6-3.8-1.7-5.4-.2l-3.4 3.1c-2-1.8-4.1-3.4-6.4-4.7l1.9-4.1c.9-1.9.1-4.2-1.8-5.1-1.9-.9-4.2-.1-5.1 1.8l-1.9 4.1c-2.5-.9-5.1-1.6-7.8-1.9l.2-4.5c.1-2.1-1.5-3.9-3.6-4-2.1-.1-3.9 1.5-4 3.6l-.2 4.5c-2.7.1-5.3.5-7.9 1.2l-1.5-4.3c-.7-2-2.9-3-4.9-2.3-2 .7-3 2.9-2.3 4.9l1.6 4.3c-2.4 1.1-4.7 2.5-6.8 4.1l-3.1-3.4c-1.4-1.6-3.8-1.7-5.4-.2-1.6 1.4-1.7 3.8-.2 5.4l3.1 3.4c-1.8 2-3.4 4.1-4.7 6.4l-4.1-1.9c-1.9-.9-4.2-.1-5.1 1.8-.9 1.9-.1 4.2 1.8 5.1l4.1 1.9c-.9 2.6-1.6 5.2-1.9 7.8l-4.5-.2c-2.1-.1-3.9 1.5-4 3.6-.1 2.1 1.5 3.9 3.6 4l4.5.2c.1 2.7.5 5.3 1.2 7.9l-4.3 1.6c-2 .7-3 2.9-2.3 4.9.6 1.5 2 2.5 3.6 2.5.4 0 .9-.1 1.3-.2l4.3-1.6c1.1 2.4 2.5 4.7 4.1 6.8l-3.4 3.1c-1.6 1.4-1.7 3.8-.2 5.4.7.8 1.8 1.2 2.8 1.2.9 0 1.8-.3 2.6-1l3.4-3.1c1.9 1.8 4.1 3.4 6.4 4.7l-1.9 4.1c-.9 1.9-.1 4.2 1.8 5.1.5.2 1.1.4 1.6.4 1.4 0 2.8-.8 3.4-2.2l1.9-4.1c2.5.9 5.1 1.6 7.8 1.9l-.2 4.5c-.1 2.1 1.5 3.9 3.6 4h.2c2 0 3.7-1.6 3.8-3.6l.2-4.5c2.7-.1 5.3-.5 7.9-1.2l1.5 4.3c.6 1.5 2 2.5 3.6 2.5.4 0 .9-.1 1.3-.2 2-.7 3-2.9 2.3-4.9l-1.6-4.3c2.4-1.1 4.7-2.5 6.8-4.1l3.1 3.4c.7.8 1.8 1.2 2.8 1.2.9 0 1.8-.3 2.6-1 1.6-1.4 1.7-3.8.2-5.4l-3.1-3.4c1.8-2 3.4-4.1 4.7-6.4l4.1 1.9c.5.2 1.1.4 1.6.4 1.4 0 2.8-.8 3.4-2.2.9-1.9.1-4.2-1.8-5.1l-4.1-1.9c.9-2.6 1.6-5.2 1.9-7.8l4.5.2h.2c2 0 3.7-1.6 3.8-3.6.3-2.2-1.3-4-3.4-4m-15.1 15.4c-5.3 11.3-16.7 18.5-29.2 18.5-4.7 0-9.3-1-13.6-3-16.1-7.5-23-26.7-15.5-42.8 5.3-11.3 16.7-18.5 29.2-18.5 4.7 0 9.3 1 13.6 3 16.1 7.5 23 26.7 15.5 42.8"/><path fill="#93CEF1" d="M1216.6 476.7c2.3-5 2.6-10.5.7-15.7-1.9-5.1-5.6-9.3-10.6-11.6-2.8-1.3-5.7-1.9-8.7-1.9-7.9 0-15.2 4.6-18.6 11.8-2.3 5-2.6 10.5-.7 15.7 1.9 5.1 5.6 9.3 10.6 11.6 2.7 1.3 5.7 1.9 8.7 1.9 8 0 15.3-4.7 18.6-11.8m-13.3 5.6c-1.7.6-3.4.9-5.2.9-6.4 0-12.2-4-14.3-10.1-2.9-7.9 1.2-16.6 9.1-19.5 1.7-.6 3.4-.9 5.2-.9 6.4 0 12.1 4 14.3 10.1 1.4 3.8 1.2 8-.5 11.6-1.7 3.7-4.8 6.5-8.6 7.9"/><path fill="#4D6886" d="M1212.4 462.8c-2.2-6-7.9-10.1-14.3-10.1-1.8 0-3.5.3-5.2.9-7.9 2.9-12 11.6-9.1 19.5 2.2 6 7.9 10.1 14.3 10.1 1.8 0 3.5-.3 5.2-.9 3.8-1.4 6.9-4.2 8.6-7.9 1.7-3.6 1.9-7.8.5-11.6m-21.5 7.8c-1.4-4 .6-8.3 4.6-9.8.8-.3 1.7-.5 2.6-.5 3.2 0 6.1 2 7.2 5 .7 1.9.6 4-.3 5.8-.9 1.8-2.4 3.2-4.3 3.9-.8.3-1.7.5-2.6.5-3.2.1-6.1-1.9-7.2-4.9M1228 465.5l-2-.1c-.2-2.4-.7-4.7-1.6-7-.8-2.3-1.9-4.4-3.3-6.4l1.4-1.3c1.6-1.4 1.7-3.8.2-5.4-1.4-1.5-3.8-1.7-5.4-.2l-1.4 1.3c-1.8-1.5-3.9-2.8-6.1-3.9-2.2-1-4.5-1.8-6.9-2.2l.1-2c.1-2.1-1.5-3.9-3.6-4-2.1-.1-3.9 1.5-4 3.6l-.1 2c-4.9.4-9.5 2.2-13.4 4.9l-1.3-1.5c-1.4-1.5-3.8-1.7-5.4-.2-1.6 1.4-1.7 3.8-.2 5.4l1.3 1.5c-1.5 1.8-2.8 3.9-3.9 6.1-1 2.2-1.8 4.5-2.2 6.9l-2-.1c-2.1-.1-3.9 1.5-4 3.6-.1 2.1 1.5 3.9 3.6 4l2 .1c.2 2.4.7 4.7 1.6 7 .8 2.3 1.9 4.4 3.3 6.4l-1.4 1.3c-1.5 1.4-1.7 3.8-.2 5.4.8.8 1.8 1.2 2.8 1.2.9 0 1.8-.3 2.6-1l1.4-1.3c1.8 1.5 3.9 2.8 6.1 3.9 2.2 1 4.5 1.8 6.9 2.2l-.1 2c-.1 2.1 1.5 3.9 3.6 4h.2c2 0 3.7-1.6 3.8-3.6l.1-2c4.9-.4 9.5-2.2 13.4-4.9l1.3 1.5c.7.8 1.8 1.2 2.8 1.2.9 0 1.8-.3 2.6-1 1.6-1.4 1.7-3.8.2-5.4l-1.3-1.5c1.5-1.8 2.8-3.9 3.9-6.1 1-2.2 1.8-4.5 2.2-6.9l2 .1h.2c2 0 3.7-1.6 3.8-3.6.2-2.1-1.5-3.9-3.6-4m-38.6 21c-5-2.3-8.7-6.4-10.6-11.6-1.9-5.1-1.6-10.7.7-15.7 3.4-7.2 10.6-11.8 18.6-11.8 3 0 5.9.7 8.7 1.9 5 2.3 8.7 6.4 10.6 11.6 1.9 5.1 1.6 10.7-.7 15.7-3.4 7.2-10.6 11.8-18.6 11.8-3 .1-6-.6-8.7-1.9"/><path fill="#fff" d="M680 241.6h-134.9c-7.8 0-14.2-6.4-14.2-14.2v-184h149v198.2z"/><path fill="#4D6886" d="M678.9 245.1h-132.9c-10.4 0-18.9-8.5-18.9-18.9v-181.4c0-2.7 2.2-4.9 4.9-4.9h146.9c2.7 0 4.9 2.2 4.9 4.9v195.4c.1 2.7-2.2 4.9-4.9 4.9m-145.2-199.8v184.9c0 5.2 4.3 9.5 9.5 9.5h134.1v-194.4h-143.6z"/><path fill="#fff" d="M532 44.8h146.9v28.3h-146.9z"/><path fill="#4D6886" d="M678.9 76.2h-146.9c-1.7 0-3.1-1.4-3.1-3.1v-28.3c0-1.7 1.4-3.1 3.1-3.1h146.9c1.7 0 3.1 1.4 3.1 3.1v28.3c0 1.7-1.4 3.1-3.1 3.1m-143.8-6.2h140.7v-22.1h-140.7v22.1z"/><path fill="#93CEF1" d="M547.4 87.1h116v67.1h-116z"/><path fill="#4D6886" d="M546.9 55.7h90.7v6.2h-90.7z"/><path fill="#93CEF1" d="M657.146 51.046l11.455 11.455-4.384 4.384-11.455-11.455zM664.239 51.025l4.385 4.383-11.452 11.458-4.385-4.383zM547.4 160.6h33.8v33.8h-33.8zM588.6 160.6h33.8v33.8h-33.8zM629.7 160.6h33.8v33.8h-33.8z"/><path fill="#9A999E" d="M547.4 201.4h116v8.6h-116zM547.4 213.2h116v8.6h-116z"/><path fill="#4D6886" d="M38.7 526h550.2v3.9h-550.2zM1.7 523h588.3v9.9h-588.3zM1889.5 63.8h490.1v3.9h-490.1zM1888.5 60.8h491.9v9.9h-491.9zM1889.5 202h490.1v3.9h-490.1zM1888.5 199h491.9v9.9h-491.9zM1889.5 408.2h490.1v3.9h-490.1zM1888.5 405.2h491.9v9.9h-491.9z"/></svg>