<?xml version="1.0" encoding="UTF-8" standalone="no"?>
<svg
   xmlns:dc="http://purl.org/dc/elements/1.1/"
   xmlns:cc="http://creativecommons.org/ns#"
   xmlns:rdf="http://www.w3.org/1999/02/22-rdf-syntax-ns#"
   xmlns:svg="http://www.w3.org/2000/svg"
   xmlns="http://www.w3.org/2000/svg"
   xmlns:sodipodi="http://sodipodi.sourceforge.net/DTD/sodipodi-0.dtd"
   xmlns:inkscape="http://www.inkscape.org/namespaces/inkscape"
   width="969.3"
   height="462.1"
   viewBox="0 0 969.3 462.1"
   version="1.1"
   id="svg40"
   sodipodi:docname="scrum-process.svg"
   inkscape:version="0.92.2 (5c3e80d, 2017-08-06)">
  <metadata
     id="metadata46">
    <rdf:RDF>
      <cc:Work
         rdf:about="">
        <dc:format>image/svg+xml</dc:format>
        <dc:type
           rdf:resource="http://purl.org/dc/dcmitype/StillImage" />
      </cc:Work>
    </rdf:RDF>
  </metadata>
  <defs
     id="defs44" />
  <sodipodi:namedview
     pagecolor="#ffffff"
     bordercolor="#666666"
     borderopacity="1"
     objecttolerance="10"
     gridtolerance="10"
     guidetolerance="10"
     inkscape:pageopacity="0"
     inkscape:pageshadow="2"
     inkscape:window-width="1920"
     inkscape:window-height="1017"
     id="namedview42"
     showgrid="false"
     inkscape:zoom="1.4443413"
     inkscape:cx="389.01849"
     inkscape:cy="236.74906"
     inkscape:window-x="-8"
     inkscape:window-y="-8"
     inkscape:window-maximized="1"
     inkscape:current-layer="svg40" />
  <path
     fill="none"
     d="M525.7 64.9c-.5 1-1.2 1.8-2.2 2.3-1 .5-2.1.8-3.3.8h-3.9V53.9h4c1.2 0 2.3.3 3.3.8.9.5 1.7 1.3 2.2 2.3.5 1 .8 2.1.8 3.4v.9c-.1 1.4-.3 2.6-.9 3.6zm-1-4.3c0-1.6-.4-2.8-1.1-3.7-.8-.9-1.8-1.3-3.2-1.4h-2.2v11.1h2c1.4 0 2.5-.4 3.3-1.3.8-.9 1.2-2.2 1.2-3.8v-.9zm11 7.4c-.1-.2-.2-.6-.3-1.1-.8.9-1.8 1.3-3 1.3-1 0-1.9-.3-2.5-.9-.7-.6-1-1.3-1-2.2 0-1.1.4-1.9 1.2-2.5.8-.6 2-.9 3.5-.9h1.7v-.8c0-.6-.2-1.1-.6-1.5-.4-.4-.9-.6-1.7-.6-.6 0-1.2.2-1.6.5-.4.3-.6.7-.6 1.2H529c0-.5.2-1 .6-1.5.4-.5.9-.9 1.5-1.2.6-.3 1.3-.4 2.1-.4 1.2 0 2.2.3 2.8.9.7.6 1 1.4 1.1 2.5v4.8c0 1 .1 1.7.4 2.3v.1h-1.8zm-.3-5H534c-2.2 0-3.3.6-3.3 1.9 0 .6.2 1 .6 1.3.4.3.9.5 1.4.5.6 0 1.1-.1 1.6-.4.5-.3.9-.7 1.1-1.1V63zm6.3-7.5c-.2.2-.4.3-.8.3-.3 0-.6-.1-.8-.3-.2-.2-.3-.4-.3-.7 0-.3.1-.5.3-.7.2-.2.4-.3.8-.3.3 0 .6.1.8.3.2.2.3.4.3.7 0 .3-.1.5-.3.7zm.1 12.5H540V57.6h1.8V68zm2.9 0V53.2h1.8V68h-1.8zM751.4 51.7h-2l-3.1-5.7H743v5.7h-1.9V37.6h4.7c1.6 0 2.8.4 3.7 1.1.9.7 1.3 1.8 1.3 3.2 0 .9-.2 1.6-.7 2.3-.5.7-1.1 1.1-2 1.5l3.3 6zm-3.3-8c.5-.5.8-1.1.8-1.9 0-.9-.3-1.5-.8-2s-1.3-.7-2.3-.7H743v5.4h2.9c.9-.1 1.6-.3 2.2-.8zm6.3 3.2c0 1 .3 1.9.9 2.5.6.6 1.3 1 2.2 1 .6 0 1.2-.1 1.6-.4.4-.3.8-.6 1.2-1l1.1.9c-.9 1.4-2.2 2-4 2-1.4 0-2.6-.5-3.5-1.4-.9-.9-1.3-2.2-1.3-3.7v-.3c0-1 .2-2 .6-2.8.4-.8 1-1.5 1.7-1.9.7-.5 1.5-.7 2.3-.7 1.4 0 2.4.4 3.2 1.3.8.9 1.1 2.2 1.1 3.9v.7h-7.1v-.1zm5.3-1.6c-.1-.9-.3-1.6-.7-2.1-.4-.5-1-.8-1.8-.8-.7 0-1.3.3-1.8.8s-.8 1.3-.9 2.2h5.2v-.1zm6.6 4.7c.2.2.5.3.9.3.2 0 .5 0 .9-.1v1.4c-.5.1-.9.2-1.4.2-.8 0-1.4-.2-1.8-.7-.4-.5-.6-1.2-.6-2.1v-6.5h-1.9v-1.4h1.9v-2.5h1.8v2.5h2v1.4h-2V49c-.1.5 0 .8.2 1zm7.8-7.3c-1.2 0-2 .5-2.4 1.5v7.4h-1.8V41.2h1.7v1.2c.6-.9 1.4-1.4 2.5-1.4.3 0 .6 0 .8.1v1.7c-.2-.1-.5-.1-.8-.1zm11.2 6.6c-.4.8-1 1.4-1.7 1.9s-1.6.7-2.5.7c-1.4 0-2.6-.5-3.5-1.5-.9-1-1.3-2.3-1.3-3.9v-.1c0-1 .2-1.9.6-2.8.4-.8 1-1.5 1.7-1.9.7-.4 1.5-.7 2.5-.7 1.4 0 2.6.5 3.5 1.5.9 1 1.3 2.3 1.3 3.9v.1c0 1-.2 2-.6 2.8zm-2-5.8c-.5-.7-1.3-1.1-2.2-1.1-.9 0-1.6.4-2.1 1.1-.5.7-.8 1.7-.8 3 0 1.2.3 2.1.8 2.8.5.7 1.3 1.1 2.2 1.1.9 0 1.6-.4 2.2-1.1.5-.7.8-1.7.8-3-.1-1.1-.4-2.1-.9-2.8zm10-.5c-.4-.4-.9-.5-1.6-.5-.7 0-1.2.1-1.5.4-.4.3-.6.7-.6 1.1 0 .4.2.8.5 1 .3.2 1 .4 1.9.6.9.2 1.6.4 2.2.7.6.3 1 .6 1.2 1 .3.4.4.9.4 1.4 0 .9-.4 1.7-1.1 2.3-.7.6-1.7.8-2.9.8-.8 0-1.6-.1-2.2-.4-.6-.3-1.2-.7-1.5-1.2-.4-.5-.5-1.1-.5-1.7h1.8c0 .6.3 1.1.7 1.4.4.4 1 .5 1.8.5.7 0 1.2-.1 1.6-.4.4-.3.6-.6.6-1.1 0-.5-.2-.9-.5-1.1-.4-.3-1-.5-1.9-.7-.9-.2-1.6-.4-2.2-.7-.5-.3-.9-.6-1.2-1-.3-.4-.4-.8-.4-1.3 0-.9.4-1.6 1.1-2.2.7-.6 1.7-.9 2.8-.9 1.2 0 2.2.3 2.9.9.7.6 1.1 1.4 1.1 2.4H794c-.1-.5-.3-1-.7-1.3zm12.4 7.4c-.7 1-1.7 1.5-3 1.5s-2.3-.4-3-1.2v5H798V41.2h1.6l.1 1.2c.7-.9 1.7-1.4 3-1.4s2.3.5 3 1.4c.7.9 1.1 2.3 1.1 4v.2c0 1.5-.3 2.8-1.1 3.8zm-1.4-6.9c-.5-.7-1.2-1-2.1-1-1.1 0-1.9.5-2.4 1.4v5c.5 1 1.4 1.4 2.5 1.4.9 0 1.5-.3 2-1s.8-1.7.8-3c-.1-1.2-.3-2.1-.8-2.8zm6.1 3.4c0 1 .3 1.9.9 2.5.6.6 1.3 1 2.2 1 .6 0 1.2-.1 1.6-.4.4-.3.8-.6 1.2-1l1.1.9c-.9 1.4-2.2 2-4 2-1.4 0-2.6-.5-3.5-1.4-.9-.9-1.3-2.2-1.3-3.7v-.3c0-1 .2-2 .6-2.8.4-.8 1-1.5 1.7-1.9.7-.5 1.5-.7 2.3-.7 1.4 0 2.4.4 3.2 1.3.8.9 1.1 2.2 1.1 3.9v.7h-7.1v-.1zm5.3-1.6c-.1-.9-.3-1.6-.7-2.1-.4-.5-1-.8-1.8-.8-.7 0-1.3.3-1.8.8s-.8 1.3-.9 2.2h5.2v-.1zm9.9-2.2c-.5-.4-1-.7-1.7-.7-.9 0-1.6.3-2.1 1s-.8 1.6-.8 2.9v.3c0 1.2.2 2.1.7 2.8.5.7 1.2 1 2.1 1 .6 0 1.2-.2 1.7-.6.5-.4.7-.9.8-1.5h1.7c0 .6-.2 1.2-.6 1.7-.4.5-.9 1-1.5 1.3-.6.3-1.3.5-2 .5-1.4 0-2.6-.5-3.4-1.4-.8-1-1.3-2.3-1.3-3.9v-.3c0-1 .2-1.9.6-2.7.4-.8.9-1.4 1.6-1.8.7-.4 1.5-.7 2.5-.7 1.2 0 2.1.4 2.9 1.1.8.7 1.2 1.6 1.2 2.7h-1.7c0-.7-.3-1.3-.7-1.7zm7.3 6.9c.2.2.5.3.9.3.2 0 .5 0 .9-.1v1.4c-.5.1-.9.2-1.4.2-.8 0-1.4-.2-1.8-.7-.4-.5-.6-1.2-.6-2.1v-6.5H829v-1.4h1.9v-2.5h1.8v2.5h2v1.4h-2V49c0 .5 0 .8.2 1zm5.5-10.9c-.2.2-.4.3-.8.3-.3 0-.6-.1-.8-.3-.2-.2-.3-.4-.3-.7 0-.3.1-.5.3-.7.2-.2.4-.3.8-.3.3 0 .6.1.8.3.2.2.3.4.3.7 0 .3-.1.5-.3.7zm.1 12.6h-1.8V41.2h1.8v10.5zm7 0h-1.4l-3.8-10.5h1.8l2.7 8 2.6-8h1.8l-3.7 10.5zm6.7-4.8c0 1 .3 1.9.9 2.5.6.6 1.3 1 2.2 1 .6 0 1.2-.1 1.6-.4.4-.3.8-.6 1.2-1l1.1.9c-.9 1.4-2.2 2-4 2-1.4 0-2.6-.5-3.5-1.4-.9-.9-1.3-2.2-1.3-3.7v-.3c0-1 .2-2 .6-2.8.4-.8 1-1.5 1.7-1.9.7-.5 1.5-.7 2.3-.7 1.4 0 2.4.4 3.2 1.3.8.9 1.1 2.2 1.1 3.9v.7h-7.1v-.1zm5.3-1.6c-.1-.9-.3-1.6-.7-2.1-.4-.5-1-.8-1.8-.8-.7 0-1.3.3-1.8.8s-.8 1.3-.9 2.2h5.2v-.1zm-68.2 23.8c-.1-.9-.3-1.6-.7-2.1-.4-.5-1-.8-1.8-.8-.7 0-1.3.3-1.8.8s-.8 1.3-.9 2.2h5.2v-.1zm10.6 0c-.1-.9-.3-1.6-.7-2.1-.4-.5-1-.8-1.8-.8-.7 0-1.3.3-1.8.8s-.8 1.3-.9 2.2h5.2v-.1zm12.1-6.2c-.2.2-.4.3-.8.3-.3 0-.6-.1-.8-.3-.2-.2-.3-.4-.3-.7 0-.3.1-.5.3-.7.2-.2.4-.3.8-.3.3 0 .6.1.8.3.2.2.3.4.3.7 0 .3-.1.5-.3.7z"
     id="path2" />
  <path
     fill-rule="evenodd"
     clip-rule="evenodd"
     fill="#43B3E6"
     d="M161.3 419.7h35.8v12.7l32.6-24.5-32.6-24.5v12.7h-35.8v23.6z"
     id="path4" />
  <path
     fill="#546E7A"
     d="M0 321.4v-21.8h144.1v21.8H0zm0 28.4V328h144.1v21.8H0zm0 28.5v-21.8h144.1v21.8H0zm0 28.4v-21.8h144.1v21.8H0zm0 28.5v-21.8h144.1v21.8H0z"
     id="path6" />
  <path
     fill="#43B3E6"
     d="M241.8 406.7v-21.8h144.1v21.8H241.8zm0 28.5v-21.8h144.1v21.8H241.8z"
     id="path8" />
  <g
     fill="#FAA71A"
     id="g14">
    <path
       fill-rule="evenodd"
       clip-rule="evenodd"
       d="M400.1 384.9h136.7v50.3H400.1v-50.3z"
       id="path10" />
    <path
       d="M543.3 435.2v-50.3h92.5v50.3h-92.5zM764.2 410l-69.1 52.1v-27h-76.2v-50.3h76.2v-27l69.1 52.2z"
       id="path12" />
  </g>
  <path
     fill-rule="evenodd"
     clip-rule="evenodd"
     fill="#F26823"
     d="M631.2 107.1l18.4 2.6-42.4 42.1-28.8-52.3 18.4 2.6c.7-12.2-2.1-24.8-8.8-36.1-18-30.3-57.1-40.4-87.4-22.4-30.3 17.9-40.4 57.1-22.4 87.4 17.9 30.3 57.1 40.4 87.4 22.4l17.5 29.6c-46.7 27.6-106.9 12.2-134.5-34.5C421 101.9 436.5 41.6 483.1 14 529.8-13.6 590 1.8 617.6 48.5c10.9 18.4 15 38.8 13.3 58.5l.3.1z"
     id="path16" />
  <path
     fill-rule="evenodd"
     clip-rule="evenodd"
     fill="#FEDA4C"
     d="M543.4 435.2s-.1 0 0 0l-.1-50.2h.1c50.9 0 92.2-41 92.2-92 0-50.9-41.3-92.2-92.2-92.2s-92.2 41.3-92.2 92.2c0 19 5.8 36.7 15.7 51.4l20.9-16.8 2.7 86.2-83.6-21.1 20.9-16.8.2-.2c-16.6-23.3-26.5-51.8-26.5-82.6 0-78.3 63.5-141.8 141.8-141.8S685.2 214.7 685.2 293c0 78.3-63.5 142.2-141.8 142.2z"
     id="path18" />
  <path
     fill="#4D4D4E"
     d="M526 64.7c-.5 1-1.2 1.8-2.2 2.3-1 .5-2.1.8-3.3.8h-3.9V53.7h4c1.2 0 2.3.3 3.3.8.9.5 1.7 1.3 2.2 2.3.5 1 .8 2.1.8 3.4v.9c-.1 1.5-.4 2.6-.9 3.6zm-1.1-4.3c0-1.6-.4-2.8-1.1-3.7-.8-.9-1.8-1.3-3.2-1.4h-2.2v11.1h2c1.4 0 2.5-.4 3.3-1.3.8-.9 1.2-2.2 1.2-3.8v-.9zm11.1 7.4c-.1-.2-.2-.6-.3-1.1-.8.9-1.8 1.3-3 1.3-1 0-1.9-.3-2.5-.9-.7-.6-1-1.3-1-2.2 0-1.1.4-1.9 1.2-2.5.8-.6 2-.9 3.5-.9h1.7v-.8c0-.6-.2-1.1-.6-1.5-.4-.4-.9-.6-1.7-.6-.6 0-1.2.2-1.6.5-.4.3-.6.7-.6 1.2h-1.8c0-.5.2-1 .6-1.5.4-.5.9-.9 1.5-1.2.6-.3 1.3-.4 2.1-.4 1.2 0 2.2.3 2.8.9.7.6 1 1.4 1.1 2.5v4.8c0 1 .1 1.7.4 2.3v.2H536v-.1zm-.3-5h-1.4c-2.2 0-3.3.6-3.3 1.9 0 .6.2 1 .6 1.3.4.3.9.5 1.4.5.6 0 1.1-.1 1.6-.4.5-.3.9-.7 1.1-1.1v-2.2zm6.2-7.5c-.2.2-.4.3-.8.3-.3 0-.6-.1-.8-.3-.2-.2-.3-.4-.3-.7 0-.3.1-.5.3-.7.2-.2.4-.3.8-.3.3 0 .6.1.8.3.2.2.3.4.3.7 0 .3-.1.5-.3.7zm.1 12.5h-1.8V57.4h1.8v10.4zm3 0V53h1.8v14.9H545v-.1zm8.2 1.7c-.7 1.7-1.7 2.6-3.1 2.6h-.3l-.7-.1v-1.5h.5c.6 0 1.1-.1 1.4-.4.3-.2.6-.7.8-1.3l.4-1.1-3.7-10.4h2l2.6 7.9 2.4-7.9h1.9l-4.2 12.2zm-47.4 10.1c-.5-.5-1.3-.7-2.3-.7-.9 0-1.6.2-2.1.6-.5.4-.8 1-.8 1.7 0 .6.2 1.1.7 1.5.5.4 1.3.8 2.5 1.1 1.2.3 2.1.7 2.7 1.1.7.4 1.2.9 1.5 1.4.3.5.5 1.2.5 1.9 0 1.1-.4 2.1-1.3 2.7-.9.7-2.1 1-3.6 1-1 0-1.9-.2-2.7-.6-.8-.4-1.5-.9-1.9-1.5-.5-.6-.7-1.4-.7-2.2h1.9c0 .9.3 1.5.9 2 .6.5 1.5.7 2.5.7s1.7-.2 2.3-.6c.5-.4.8-.9.8-1.6 0-.7-.2-1.2-.7-1.6-.5-.4-1.4-.8-2.6-1.1-1.6-.5-2.8-1-3.5-1.7-.7-.7-1.1-1.5-1.1-2.5 0-1.1.4-2 1.3-2.8.9-.7 2-1.1 3.5-1.1 1 0 1.8.2 2.6.6.8.4 1.3.9 1.8 1.6.4.7.6 1.4.6 2.2h-1.9c-.1-.9-.4-1.6-.9-2.1zm7.4 10.4c.2.2.5.3.9.3.2 0 .5 0 .9-.1v1.4c-.5.1-.9.2-1.4.2-.8 0-1.4-.2-1.8-.7-.4-.5-.6-1.2-.6-2.1v-6.5h-1.9v-1.4h1.9v-2.5h1.8v2.5h2v1.4h-2V89c-.1.5 0 .8.2 1zm10.1 1.6c-.1-.2-.2-.6-.3-1.1-.8.9-1.8 1.3-3 1.3-1 0-1.9-.3-2.5-.9-.7-.6-1-1.3-1-2.2 0-1.1.4-1.9 1.2-2.5.8-.6 2-.9 3.5-.9h1.7v-.8c0-.6-.2-1.1-.6-1.5-.4-.4-.9-.6-1.7-.6-.6 0-1.2.2-1.6.5-.4.3-.6.7-.6 1.2h-1.8c0-.5.2-1 .6-1.5.4-.5.9-.9 1.5-1.2.6-.3 1.3-.4 2.1-.4 1.2 0 2.2.3 2.8.9.7.6 1 1.4 1.1 2.5v4.8c0 1 .1 1.7.4 2.3v.2h-1.8v-.1zm-.3-5h-1.4c-2.2 0-3.3.6-3.3 1.9 0 .6.2 1 .6 1.3.4.3.9.5 1.4.5.6 0 1.1-.1 1.6-.4.5-.3.9-.7 1.1-1.1v-2.2zm10.8 5v-6.9c0-.8-.2-1.3-.5-1.7-.3-.4-.9-.5-1.6-.5-.6 0-1.1.2-1.5.5-.4.3-.8.7-1 1.2v7.5h-1.8V81.2h1.7l.1 1.3c.8-1 1.8-1.5 3.1-1.5 2.2 0 3.3 1.2 3.4 3.7v6.9h-1.9zm11.5 0l-.1-1.1c-.7.9-1.7 1.3-3 1.3-1.2 0-2.2-.5-3-1.5-.8-1-1.1-2.3-1.1-3.9v-.1c0-1.6.4-2.9 1.1-3.9.8-1 1.8-1.5 3-1.5s2.2.4 2.9 1.3v-5.5h1.8v14.9h-1.6zm-.2-7.6c-.5-1-1.4-1.5-2.5-1.5-.9 0-1.6.3-2.1 1s-.7 1.7-.7 3c0 1.2.2 2.1.7 2.8.5.7 1.2 1 2 1 1.1 0 2-.5 2.5-1.5V84h.1zm15.8 7.6v-1c-.7.8-1.7 1.2-3.1 1.2-1.1 0-2-.3-2.6-1-.6-.6-.9-1.6-.9-2.9v-6.8h1.8v6.8c0 1.6.6 2.4 1.9 2.4 1.4 0 2.3-.5 2.7-1.5v-7.6h1.8v10.5h-1.6v-.1zm12.3-1.2c-.7 1-1.7 1.5-3 1.5s-2.3-.4-3-1.2v5h-1.8V81.2h1.6l.1 1.2c.7-.9 1.7-1.4 3-1.4s2.3.5 3 1.4c.7.9 1.1 2.3 1.1 4v.2c.1 1.5-.2 2.8-1 3.8zm-1.4-6.9c-.5-.7-1.2-1-2.1-1-1.1 0-1.9.5-2.4 1.4v5c.5 1 1.4 1.4 2.5 1.4.9 0 1.5-.3 2-1s.8-1.7.8-3c-.1-1.2-.3-2.1-.8-2.8zm-57.6 31.9V110l.2-5.9-4.6 11.4h-1.4l-4.6-11.4.2 5.9v5.5h-2v-14.1h2.4l4.6 11.5 4.6-11.5h2.4v14.1h-1.8v-.1zm6.3-4.7c0 1 .3 1.9.9 2.5.6.6 1.3 1 2.2 1 .6 0 1.2-.1 1.6-.4.4-.3.8-.6 1.2-1l1.1.9c-.9 1.3-2.2 2-4 2-1.4 0-2.6-.5-3.5-1.4-.9-.9-1.3-2.2-1.3-3.7v-.3c0-1 .2-2 .6-2.8.4-.8 1-1.5 1.7-1.9.7-.5 1.5-.7 2.3-.7 1.4 0 2.4.4 3.2 1.3.8.9 1.1 2.2 1.1 3.9v.7h-7.1v-.1zm5.3-1.6c-.1-.9-.3-1.6-.7-2.1-.4-.5-1-.7-1.8-.7-.7 0-1.3.3-1.8.8s-.8 1.3-.9 2.2h5.2v-.2zm5.3 1.6c0 1 .3 1.9.9 2.5.6.6 1.3 1 2.2 1 .6 0 1.2-.1 1.6-.4.4-.3.8-.6 1.2-1l1.1.9c-.9 1.3-2.2 2-4 2-1.4 0-2.6-.5-3.5-1.4-.9-.9-1.3-2.2-1.3-3.7v-.3c0-1 .2-2 .6-2.8.4-.8 1-1.5 1.7-1.9.7-.5 1.5-.7 2.3-.7 1.4 0 2.4.4 3.2 1.3.8.9 1.1 2.2 1.1 3.9v.7h-7.1v-.1zm5.3-1.6c-.1-.9-.3-1.6-.7-2.1-.4-.5-1-.7-1.8-.7-.7 0-1.3.3-1.8.8s-.8 1.3-.9 2.2h5.3v-.2h-.1zm6.6 4.7c.2.2.5.3.9.3.2 0 .5 0 .9-.1v1.4c-.5.1-.9.2-1.4.2-.8 0-1.4-.2-1.8-.7-.4-.5-.6-1.2-.6-2.1v-6.5h-1.9V105h1.9v-2.5h1.8v2.5h2v1.4h-2v6.5c0 .4.1.7.2.9zm5.6-10.9c-.2.2-.4.3-.8.3-.3 0-.6-.1-.8-.3-.2-.2-.3-.4-.3-.7 0-.3.1-.5.3-.7.2-.2.4-.3.8-.3.3 0 .6.1.8.3.2.2.3.4.3.7-.1.3-.2.5-.3.7zm0 12.5h-1.8V105h1.8v10.4zm9.3 0v-6.9c0-.8-.2-1.3-.5-1.7-.3-.4-.9-.5-1.6-.5-.6 0-1.1.2-1.5.5-.4.3-.8.7-1 1.2v7.5h-1.8V105h1.7l.1 1.3c.8-1 1.8-1.5 3.1-1.5 2.2 0 3.3 1.3 3.3 3.7v6.9h-1.8zm11.9 3c-.8.8-1.9 1.2-3.2 1.2-.8 0-1.5-.2-2.2-.5-.7-.3-1.3-.8-1.7-1.3l.9-1.1c.8.9 1.7 1.4 2.8 1.4.9 0 1.6-.2 2-.7.5-.5.7-1.2.7-2.1v-.9c-.7.8-1.7 1.2-2.9 1.2s-2.2-.5-3-1.5c-.8-1-1.1-2.3-1.1-4 0-1.6.4-2.9 1.1-3.9.8-1 1.8-1.4 3-1.4 1.3 0 2.3.5 3 1.4l.1-1.2h1.6v10.2c.1 1.3-.3 2.4-1.1 3.2zm-.6-10.6c-.5-1-1.4-1.5-2.5-1.5-.9 0-1.6.3-2 1-.5.7-.7 1.7-.7 3 0 1.2.2 2.1.7 2.8.5.7 1.2 1 2 1 1.1 0 2-.5 2.5-1.5v-4.8zM506.4 279.8v-11.9l-3.6 1.3v-1.6l5.1-1.9h.3v14.2h-1.8v-.1zm6.2-5.3V273h4.7v1.5h-4.7zm13.7 2v3.3h-1.8v-3.3h-6.4v-1.1l6.3-9.8h1.9v9.4h2v1.5h-2zm-1.8-8.4l-.2.4-4.2 6.5h4.4v-6.9zm20.3 11.7h-1.5l-2.5-7.9-2.5 7.9h-1.5l-3-10.5h1.8l2.1 7.8 2.4-7.8h1.4l2.5 8 2-8h1.8l-3 10.5zm6.1-4.7c0 1 .3 1.9.9 2.5.6.6 1.3 1 2.2 1 .6 0 1.2-.1 1.6-.4.4-.3.8-.6 1.2-1l1.1.9c-.9 1.4-2.2 2-4 2-1.4 0-2.6-.5-3.5-1.4-.9-.9-1.3-2.2-1.3-3.7v-.3c0-1 .2-2 .6-2.8.4-.8 1-1.5 1.7-1.9.7-.5 1.5-.7 2.3-.7 1.4 0 2.4.4 3.2 1.3.8.9 1.1 2.2 1.1 3.9v.7h-7.1v-.1zm5.3-1.6c-.1-.9-.3-1.6-.7-2.1-.4-.5-1-.7-1.8-.7-.7 0-1.3.3-1.8.8s-.8 1.3-.9 2.2h5.2v-.2zm5.3 1.6c0 1 .3 1.9.9 2.5.6.6 1.3 1 2.2 1 .6 0 1.2-.1 1.6-.4.4-.3.8-.6 1.2-1l1.1.9c-.9 1.4-2.2 2-4 2-1.4 0-2.6-.5-3.5-1.4-.9-.9-1.3-2.2-1.3-3.7v-.3c0-1 .2-2 .6-2.8.4-.8 1-1.5 1.7-1.9.7-.5 1.5-.7 2.3-.7 1.4 0 2.4.4 3.2 1.3.8.9 1.1 2.2 1.1 3.9v.7h-7.1v-.1zm5.3-1.6c-.1-.9-.3-1.6-.7-2.1-.4-.5-1-.7-1.8-.7-.7 0-1.3.3-1.8.8s-.8 1.3-.9 2.2h5.2v-.2zm12.6 6.3h-2.1l-3.7-4.9-1.1 1.2v3.7h-1.8v-14.9h1.8v9l1-1.2 3.3-3.4h2.2l-4.1 4.4 4.5 6.1zm-56.7 11.8c-.5-.5-1.3-.7-2.3-.7-.9 0-1.6.2-2.1.6-.5.4-.8 1-.8 1.7 0 .6.2 1.1.7 1.5.5.4 1.3.8 2.5 1.1 1.2.3 2.1.7 2.8 1.1.7.4 1.2.9 1.5 1.4.3.5.5 1.2.5 1.9 0 1.1-.4 2.1-1.3 2.7-.9.7-2.1 1-3.6 1-1 0-1.9-.2-2.7-.6-.8-.4-1.5-.9-1.9-1.5-.5-.6-.7-1.4-.7-2.2h1.9c0 .9.3 1.5.9 2 .6.5 1.5.7 2.5.7s1.7-.2 2.3-.6c.5-.4.8-.9.8-1.6 0-.7-.2-1.2-.7-1.6-.5-.4-1.4-.7-2.6-1.1-1.6-.5-2.8-1-3.5-1.7-.7-.7-1.1-1.5-1.1-2.5 0-1.1.4-2 1.3-2.8.9-.7 2-1.1 3.5-1.1 1 0 1.8.2 2.6.6.8.4 1.3.9 1.8 1.6.4.7.6 1.4.6 2.2h-1.9c-.2-1-.5-1.7-1-2.1zm12.4 10.7c-.7 1-1.7 1.5-3 1.5s-2.3-.4-3-1.2v5h-1.8v-14.5h1.6l.1 1.2c.7-.9 1.7-1.4 3-1.4s2.3.5 3 1.4c.7 1 1.1 2.3 1.1 4v.2c.1 1.6-.2 2.9-1 3.8zm-1.4-6.8c-.5-.7-1.2-1-2.1-1-1.1 0-1.9.5-2.4 1.4v5c.5 1 1.4 1.4 2.5 1.4.9 0 1.5-.3 2-1s.8-1.7.8-3c-.1-1.2-.3-2.1-.8-2.8zm9-.8c-1.2 0-2 .5-2.4 1.5v7.4h-1.8v-10.5h1.7v1.2c.6-.9 1.4-1.4 2.5-1.4.3 0 .6 0 .8.1v1.7h-.8zm4.5-3.6c-.2.2-.4.3-.8.3s-.6-.1-.8-.3c-.2-.2-.3-.4-.3-.7 0-.3.1-.5.3-.7.2-.2.4-.3.8-.3s.6.1.8.3c.2.2.3.4.3.7 0 .2-.1.5-.3.7zm.1 12.5h-1.8v-10.5h1.8v10.5zm9.3 0v-6.9c0-.8-.2-1.3-.5-1.7-.3-.4-.9-.5-1.6-.5-.6 0-1.1.2-1.5.5-.4.3-.8.7-1 1.2v7.5h-1.8v-10.5h1.7l.1 1.3c.8-1 1.8-1.5 3.1-1.5 2.2 0 3.3 1.2 3.4 3.7v6.9h-1.9zm7.3-1.6c.2.2.5.3.9.3.2 0 .5 0 .9-.1v1.4c-.5.1-.9.2-1.4.2-.8 0-1.4-.2-1.8-.7-.4-.5-.6-1.2-.6-2.1v-6.5H560v-1.4h1.9v-2.5h1.8v2.5h2v1.4h-2v6.5c0 .4 0 .7.2 1zM291.2 331.4c-.5-.5-1.3-.7-2.3-.7-.9 0-1.6.2-2.1.6-.5.4-.8 1-.8 1.7 0 .6.2 1.1.7 1.5.5.4 1.3.8 2.5 1.1 1.2.3 2.1.7 2.8 1.1.7.4 1.2.9 1.5 1.4.3.5.5 1.2.5 1.9 0 1.1-.4 2.1-1.3 2.7-.9.7-2.1 1-3.6 1-1 0-1.9-.2-2.7-.6-.8-.4-1.5-.9-1.9-1.5-.5-.6-.7-1.4-.7-2.2h1.9c0 .9.3 1.5.9 2 .6.5 1.5.7 2.5.7s1.7-.2 2.3-.6c.5-.4.8-.9.8-1.6 0-.7-.2-1.2-.7-1.6-.5-.4-1.4-.7-2.6-1.1-1.6-.5-2.8-1-3.5-1.7-.7-.7-1.1-1.5-1.1-2.5 0-1.1.4-2 1.3-2.8.9-.7 2-1.1 3.5-1.1 1 0 1.8.2 2.6.6.8.4 1.3.9 1.8 1.5.4.7.6 1.4.6 2.2H292c0-.9-.2-1.5-.8-2zm12.4 10.8c-.7 1-1.7 1.5-3 1.5s-2.3-.4-3-1.2v5h-1.8V333h1.6l.1 1.2c.7-.9 1.7-1.4 3-1.4s2.3.5 3 1.4c.7.9 1.1 2.3 1.1 4v.2c.1 1.5-.2 2.8-1 3.8zm-1.4-6.9c-.5-.7-1.2-1-2.1-1-1.1 0-1.9.5-2.4 1.4v5c.5 1 1.4 1.4 2.5 1.4.9 0 1.5-.3 2-1s.8-1.7.8-3c-.1-1.2-.3-2.1-.8-2.8zm9-.8c-1.2 0-2 .5-2.4 1.5v7.4H307v-10.5h1.7v1.2c.6-.9 1.4-1.4 2.5-1.4.3 0 .6 0 .8.1v1.7h-.8zm4.5-3.6c-.2.2-.4.3-.8.3-.3 0-.6-.1-.8-.3-.2-.2-.3-.4-.3-.7s.1-.5.3-.7.4-.3.8-.3c.3 0 .6.1.8.3.2.2.3.4.3.7s-.1.5-.3.7zm.1 12.5H314v-10.5h1.8v10.5zm9.3 0v-6.9c0-.8-.2-1.3-.5-1.7-.3-.4-.9-.5-1.6-.5-.6 0-1.1.2-1.5.5-.4.3-.8.7-1 1.2v7.5h-1.8V333h1.7l.1 1.3c.8-1 1.8-1.5 3.1-1.5 2.2 0 3.3 1.3 3.4 3.7v6.9h-1.9zm7.3-1.6c.2.2.5.3.9.3.2 0 .5 0 .9-.1v1.4c-.5.1-.9.2-1.4.2-.8 0-1.4-.2-1.8-.7-.4-.5-.6-1.2-.6-2.1v-6.5h-1.9v-1.4h1.9v-2.5h1.8v2.5h2v1.4h-2v6.5c0 .5.1.8.2 1zm-50 18c.8.2 1.4.6 1.8 1.2.4.6.7 1.3.7 2.1 0 1.3-.4 2.3-1.2 3-.8.7-2 1.1-3.5 1.1h-4.9v-14.1h4.6c1.5 0 2.7.3 3.5.9.8.6 1.2 1.6 1.2 2.8 0 .7-.2 1.2-.6 1.7-.4.6-.9 1-1.6 1.3zm-5.3 5.9h3.1c.9 0 1.5-.2 2-.7.5-.4.8-1.1.8-1.9 0-1.7-.9-2.5-2.8-2.5h-3.1v5.1zm4.9-10.5c-.5-.4-1.1-.5-2.1-.5h-2.7v4.5h2.8c.8 0 1.5-.2 2-.6.5-.4.7-1 .7-1.7-.1-.8-.3-1.4-.7-1.7zm11.6 12c-.1-.2-.2-.6-.3-1.1-.8.9-1.8 1.3-3 1.3-1 0-1.9-.3-2.5-.9-.7-.6-1-1.3-1-2.2 0-1.1.4-1.9 1.2-2.5s2-.9 3.5-.9h1.7v-.9c0-.6-.2-1.1-.6-1.5-.4-.4-.9-.6-1.7-.6-.6 0-1.2.2-1.6.5-.4.3-.6.7-.6 1.2h-1.8c0-.5.2-1 .6-1.5.4-.5.9-.9 1.5-1.2.6-.3 1.3-.4 2.1-.4 1.2 0 2.2.3 2.8.9.7.6 1 1.4 1.1 2.5v4.8c0 1 .1 1.7.4 2.3v.2h-1.8zm-.2-5.1H292c-2.2 0-3.3.6-3.3 1.9 0 .6.2 1 .6 1.3.4.3.9.5 1.4.5.6 0 1.1-.1 1.6-.4.5-.3.9-.7 1.1-1.1v-2.2zm10.2-3.4c-.5-.4-1-.7-1.7-.7-.9 0-1.6.3-2.1 1s-.8 1.6-.8 2.8v.3c0 1.2.2 2.1.7 2.8.5.7 1.2 1 2.1 1 .6 0 1.2-.2 1.7-.6.5-.4.7-.9.8-1.5h1.7c0 .6-.2 1.2-.6 1.7-.4.5-.9 1-1.5 1.3-.6.3-1.3.5-2 .5-1.4 0-2.6-.5-3.4-1.4-.8-1-1.3-2.3-1.3-3.9v-.3c0-1 .2-1.9.6-2.7.4-.8.9-1.4 1.6-1.8.7-.4 1.5-.7 2.5-.7 1.2 0 2.2.4 2.9 1.1.8.7 1.2 1.6 1.2 2.7h-1.7c.1-.6-.2-1.2-.7-1.6zm13.4 8.5h-2.1l-3.7-4.9-1.1 1.2v3.7h-1.8v-14.9h1.8v9l1-1.2 3.3-3.4h2.2l-4.1 4.4 4.5 6.1zm1.5 0v-14.9h1.8v14.9h-1.8zm13.1-2.4c-.4.8-.9 1.4-1.7 1.9-.7.5-1.6.7-2.5.7-1.4 0-2.6-.5-3.5-1.5-.9-1-1.3-2.3-1.3-3.9v-.1c0-1 .2-1.9.6-2.8.4-.8 1-1.5 1.7-1.9.7-.4 1.5-.7 2.5-.7 1.4 0 2.6.5 3.5 1.5.9 1 1.3 2.3 1.3 3.9v.1c0 1.1-.2 2-.6 2.8zm-2-5.7c-.5-.7-1.3-1.1-2.2-1.1-.9 0-1.6.4-2.1 1.1-.5.7-.8 1.7-.8 3 0 1.2.3 2.1.8 2.8.5.7 1.3 1.1 2.2 1.1.9 0 1.6-.4 2.2-1.1.5-.7.8-1.7.8-3-.1-1.2-.4-2.1-.9-2.8zm11.9 11.1c-.8.8-1.9 1.2-3.2 1.2-.8 0-1.5-.2-2.2-.5-.7-.3-1.3-.8-1.7-1.3l.9-1.1c.8 1 1.7 1.4 2.8 1.4.9 0 1.6-.2 2-.7.5-.5.7-1.2.7-2.1v-.9c-.7.8-1.7 1.2-2.9 1.2s-2.2-.5-3-1.5c-.8-1-1.1-2.3-1.1-4 0-1.6.4-2.9 1.1-3.9.8-1 1.8-1.4 3-1.4 1.3 0 2.3.5 3 1.4l.1-1.2h1.6V367c.1 1.3-.3 2.4-1.1 3.2zm-.6-10.6c-.5-1-1.4-1.5-2.5-1.5-.9 0-1.6.3-2 1-.5.7-.7 1.7-.7 3 0 1.2.2 2.1.7 2.8.5.7 1.2 1 2 1 1.1 0 2-.5 2.5-1.5v-4.8zM48.1 248.7c-.9.7-2.1 1.1-3.7 1.1h-3.3v5.5h-1.9v-14.1h5.2c1.5 0 2.8.4 3.6 1.2.9.8 1.3 1.8 1.3 3.1.1 1.4-.3 2.5-1.2 3.2zm-1.3-5.1c-.5-.5-1.3-.8-2.2-.8h-3.4v5.5h3.3c1 0 1.8-.2 2.3-.7.5-.5.8-1.1.8-2 0-.8-.3-1.5-.8-2zm9.1 2.8c-1.2 0-2 .5-2.4 1.5v7.4h-1.8v-10.5h1.7v1.2c.6-.9 1.4-1.4 2.5-1.4.3 0 .6 0 .8.1v1.7c-.2.1-.5 0-.8 0zM67 253c-.4.8-.9 1.4-1.7 1.9-.7.5-1.6.7-2.5.7-1.4 0-2.6-.5-3.5-1.5-.9-1-1.3-2.3-1.3-3.9v-.2c0-1 .2-1.9.6-2.8.4-.8 1-1.5 1.7-1.9.7-.4 1.5-.7 2.5-.7 1.4 0 2.6.5 3.5 1.5.9 1 1.3 2.3 1.3 3.9v.1c0 1.2-.2 2.1-.6 2.9zm-2-5.8c-.5-.7-1.3-1.1-2.2-1.1-.9 0-1.6.4-2.1 1.1-.5.7-.8 1.7-.8 3 0 1.2.3 2.1.8 2.8.5.7 1.3 1.1 2.2 1.1.9 0 1.6-.4 2.2-1.1.5-.7.8-1.7.8-3-.1-1.1-.3-2-.9-2.8zm11.4 8.2l-.1-1.1c-.7.9-1.7 1.3-3 1.3-1.2 0-2.2-.5-3-1.5-.8-1-1.1-2.3-1.1-3.9v-.2c0-1.6.4-2.9 1.1-3.9.8-1 1.8-1.5 3-1.5s2.2.4 2.9 1.3v-5.5H78v14.9h-1.6v.1zm-.1-7.7c-.5-1-1.4-1.5-2.5-1.5-.9 0-1.6.3-2.1 1s-.7 1.7-.7 3c0 1.2.2 2.1.7 2.8.5.7 1.2 1 2 1 1.1 0 2-.5 2.5-1.5v-4.8h.1zm11 7.7v-1c-.7.8-1.7 1.2-3.1 1.2-1.1 0-2-.3-2.6-1-.6-.6-.9-1.6-.9-2.9v-6.8h1.8v6.8c0 1.6.6 2.4 1.9 2.4 1.4 0 2.3-.5 2.7-1.5V245H89v10.5h-1.7v-.1zm10.5-8.6c-.5-.4-1-.7-1.7-.7-.9 0-1.6.3-2.1 1s-.8 1.6-.8 2.8v.3c0 1.2.2 2.1.7 2.8.5.7 1.2 1 2.1 1 .6 0 1.2-.2 1.7-.6.5-.4.7-.9.8-1.5h1.7c0 .6-.2 1.2-.6 1.7-.4.5-.9 1-1.5 1.3-.6.3-1.3.5-2 .5-1.4 0-2.6-.5-3.4-1.4-.8-1-1.3-2.3-1.3-3.9v-.3c0-1 .2-1.9.6-2.7.4-.8.9-1.4 1.6-1.8.7-.4 1.5-.7 2.5-.7 1.2 0 2.2.4 2.9 1.1.8.7 1.2 1.6 1.2 2.7h-1.7c0-.6-.2-1.1-.7-1.6zm7.4 6.9c.2.2.5.3.9.3.2 0 .5 0 .9-.1v1.4c-.5.1-.9.2-1.4.2-.8 0-1.4-.2-1.8-.7-.4-.5-.6-1.2-.6-2.1v-6.5h-1.9v-1.4h1.9v-2.5h1.8v2.5h2v1.4h-2v6.5c-.1.5 0 .8.2 1zm-59.1 18c.8.2 1.4.6 1.8 1.2.4.6.7 1.3.7 2.1 0 1.3-.4 2.3-1.2 3-.8.7-2 1.1-3.5 1.1H39V265h4.6c1.5 0 2.7.3 3.5.9.8.6 1.2 1.6 1.2 2.8 0 .7-.2 1.2-.6 1.7-.4.7-.9 1.1-1.6 1.3zm-5.2 5.9H44c.9 0 1.5-.2 2-.7.5-.4.8-1.1.8-1.9 0-1.7-.9-2.5-2.8-2.5h-3.1v5.1zm4.8-10.5c-.5-.4-1.1-.5-2.1-.5h-2.7v4.5h2.8c.8 0 1.5-.2 2-.6.5-.4.7-1 .7-1.7 0-.8-.3-1.3-.7-1.7zm11.7 12.1c-.1-.2-.2-.6-.3-1.1-.8.9-1.8 1.3-3 1.3-1 0-1.9-.3-2.5-.9-.7-.6-1-1.3-1-2.2 0-1.1.4-1.9 1.2-2.5.8-.6 2-.9 3.5-.9H57v-.9c0-.6-.2-1.1-.6-1.5-.4-.4-.9-.6-1.7-.6-.6 0-1.2.2-1.6.5-.4.3-.6.7-.6 1.2h-1.8c0-.5.2-1 .6-1.5.4-.5.9-.9 1.5-1.2.6-.3 1.3-.4 2.1-.4 1.2 0 2.2.3 2.8.9.7.6 1 1.4 1.1 2.5v4.8c0 1 .1 1.7.4 2.3v.2h-1.8zm-.3-5.1h-1.4c-2.2 0-3.3.6-3.3 1.9 0 .6.2 1 .6 1.3.4.3.9.5 1.4.5.6 0 1.1-.1 1.6-.4.5-.3.9-.7 1.1-1.1v-2.2zm10.3-3.5c-.5-.4-1-.7-1.7-.7-.9 0-1.6.3-2.1 1s-.8 1.6-.8 2.8v.3c0 1.2.3 2.1.7 2.8.5.7 1.2 1 2.1 1 .6 0 1.2-.2 1.7-.6.5-.4.7-.9.8-1.5h1.7c0 .6-.2 1.2-.6 1.7-.4.5-.9 1-1.5 1.3-.6.3-1.3.5-2 .5-1.4 0-2.6-.5-3.4-1.4-.8-1-1.3-2.3-1.3-3.9v-.3c0-1 .2-1.9.6-2.7.4-.8.9-1.4 1.6-1.8.7-.4 1.5-.7 2.5-.7 1.2 0 2.2.4 2.9 1.1.8.7 1.2 1.6 1.2 2.7h-1.7c0-.6-.3-1.1-.7-1.6zm13.3 8.6h-2.1l-3.7-4.8-1.1 1.2v3.7H72v-14.9h1.8v9l1-1.2 3.3-3.4h2.2l-4.1 4.4 4.5 6zm1.6 0v-14.9h1.8v14.9h-1.8zm13-2.4c-.4.8-1 1.4-1.7 1.9s-1.6.7-2.5.7c-1.4 0-2.6-.5-3.5-1.5-.9-1-1.3-2.3-1.3-3.9v-.1c0-1 .2-2 .6-2.8.4-.8 1-1.5 1.7-1.9.7-.4 1.5-.7 2.5-.7 1.4 0 2.6.5 3.5 1.5.9 1 1.3 2.3 1.3 3.9v.1c0 1.1-.2 2-.6 2.8zm-2-5.8c-.5-.7-1.3-1.1-2.2-1.1-.9 0-1.6.4-2.1 1.1-.5.7-.8 1.7-.8 3 0 1.2.3 2.1.8 2.8.5.7 1.3 1.1 2.2 1.1.9 0 1.6-.4 2.2-1.1.5-.7.8-1.7.8-3-.1-1.1-.3-2.1-.9-2.8zm11.9 11.1c-.8.8-1.9 1.2-3.2 1.2-.8 0-1.5-.2-2.2-.5-.7-.3-1.3-.8-1.7-1.3l.9-1.1c.8.9 1.7 1.4 2.8 1.4.9 0 1.6-.2 2-.7.5-.5.7-1.2.7-2.1v-.9c-.7.8-1.7 1.2-2.9 1.2s-2.2-.5-3-1.5c-.8-1-1.1-2.3-1.1-4 0-1.6.4-2.9 1.1-3.9.8-1 1.8-1.4 3-1.4 1.3 0 2.3.5 3 1.4l.1-1.2h1.6v10.2c.1 1.4-.3 2.4-1.1 3.2zm-.6-10.6c-.5-1-1.4-1.5-2.5-1.5-.9 0-1.6.3-2 1-.5.7-.7 1.7-.7 3 0 1.2.2 2.1.7 2.8.5.7 1.2 1 2 1 1.1 0 2-.5 2.5-1.5v-4.8zM854.4 334.5h-2l-3.1-5.7H846v5.7h-1.9v-14.1h4.7c1.6 0 2.8.4 3.7 1.1.9.7 1.3 1.8 1.3 3.2 0 .9-.2 1.6-.7 2.3-.5.7-1.1 1.1-2 1.5l3.3 6zm-3.3-8c.5-.5.8-1.1.8-1.9 0-.9-.3-1.5-.8-2s-1.3-.7-2.3-.7H846v5.4h2.9c.9-.1 1.6-.3 2.2-.8zm6.3 3.2c0 1 .3 1.9.9 2.5.6.6 1.3 1 2.2 1 .6 0 1.2-.1 1.6-.4.4-.3.8-.6 1.2-1l1.1.9c-.9 1.4-2.2 2-4 2-1.4 0-2.6-.5-3.5-1.4-.9-.9-1.3-2.2-1.3-3.7v-.3c0-1 .2-2 .6-2.8.4-.8 1-1.5 1.7-1.9.7-.5 1.5-.7 2.3-.7 1.4 0 2.4.4 3.2 1.3.8.9 1.1 2.2 1.1 3.9v.7h-7.1v-.1zm5.3-1.6c-.1-.9-.3-1.6-.7-2.1-.4-.5-1-.7-1.8-.7-.7 0-1.3.3-1.8.8s-.8 1.3-.9 2.2h5.2v-.2zm9.3-2.3c-.4-.4-.9-.5-1.6-.5-.7 0-1.2.1-1.5.4-.4.3-.6.7-.6 1.1 0 .4.2.8.5 1 .3.2 1 .4 1.9.6.9.2 1.6.4 2.2.7.6.3 1 .6 1.2 1 .3.4.4.9.4 1.4 0 .9-.4 1.7-1.1 2.3-.7.6-1.7.8-2.9.8-.8 0-1.6-.1-2.2-.4-.6-.3-1.1-.7-1.5-1.2-.4-.5-.5-1.1-.5-1.7h1.8c0 .6.3 1.1.7 1.4.4.4 1 .5 1.8.5.7 0 1.2-.1 1.6-.4.4-.3.6-.6.6-1.1 0-.5-.2-.9-.5-1.1-.4-.3-1-.5-1.9-.7-.9-.2-1.6-.4-2.2-.7-.5-.3-.9-.6-1.2-1-.3-.4-.4-.8-.4-1.3 0-.9.4-1.6 1.1-2.2.7-.6 1.7-.9 2.8-.9 1.2 0 2.2.3 2.9.9.7.6 1.1 1.4 1.1 2.4h-1.8c-.1-.5-.3-1-.7-1.3zm11.2 8.7v-1c-.7.8-1.7 1.2-3.1 1.2-1.1 0-2-.3-2.6-1-.6-.6-.9-1.6-.9-2.9V324h1.8v6.8c0 1.6.6 2.4 1.9 2.4 1.4 0 2.3-.5 2.7-1.5V324h1.8v10.5h-1.6zm4.7 0v-14.9h1.8v14.9h-1.8zm7.3-1.7c.2.2.5.3.9.3.2 0 .5 0 .9-.1v1.4c-.5.1-.9.2-1.4.2-.8 0-1.4-.2-1.8-.7-.4-.5-.6-1.2-.6-2.1v-6.5h-1.9V324h1.9v-2.5h1.8v2.5h2v1.4h-2v6.5c0 .4.1.7.2.9zM751.6 51.5h-2l-3.1-5.7h-3.3v5.7h-1.9V37.4h4.7c1.6 0 2.8.4 3.7 1.1.9.7 1.3 1.8 1.3 3.2 0 .9-.2 1.6-.7 2.3-.5.7-1.1 1.1-2 1.5l3.3 6zm-3.3-8c.5-.5.8-1.1.8-1.9 0-.9-.3-1.5-.8-2s-1.3-.7-2.3-.7h-2.8v5.4h2.9c.9-.1 1.7-.3 2.2-.8zm6.3 3.2c0 1 .3 1.9.9 2.5.6.6 1.3 1 2.2 1 .6 0 1.2-.1 1.6-.4.4-.3.8-.6 1.2-1l1.1.9c-.9 1.3-2.2 2-4 2-1.4 0-2.6-.5-3.5-1.4-.9-.9-1.3-2.2-1.3-3.7v-.3c0-1 .2-2 .6-2.8.4-.8 1-1.5 1.7-1.9.7-.5 1.5-.7 2.3-.7 1.4 0 2.4.4 3.2 1.3.8.9 1.1 2.2 1.1 3.9v.7h-7.1v-.1zm5.3-1.6c-.1-.9-.3-1.6-.7-2.1-.4-.5-1-.7-1.8-.7-.7 0-1.3.3-1.8.8s-.8 1.3-.9 2.2h5.2v-.2zm6.6 4.7c.2.2.5.3.9.3.2 0 .5 0 .9-.1v1.4c-.5.1-.9.2-1.4.2-.8 0-1.4-.2-1.8-.7-.4-.5-.6-1.2-.6-2.1v-6.5h-1.9V41h1.9v-2.5h1.8V41h2v1.4h-2v6.5c0 .4.1.7.2.9zm7.9-7.3c-1.2 0-2 .5-2.4 1.5v7.4h-1.8V41h1.7v1.2c.6-.9 1.4-1.4 2.5-1.4.3 0 .6 0 .8.1v1.7c-.2-.1-.5-.1-.8-.1zm11.1 6.6c-.4.8-1 1.4-1.7 1.9s-1.6.7-2.5.7c-1.4 0-2.6-.5-3.5-1.5-.9-1-1.3-2.3-1.3-3.9v-.1c0-1 .2-2 .6-2.8.4-.8 1-1.5 1.7-1.9.7-.4 1.5-.7 2.5-.7 1.4 0 2.6.5 3.5 1.5.9 1 1.3 2.3 1.3 3.9v.1c0 1.1-.2 2-.6 2.8zm-2-5.8c-.5-.7-1.3-1.1-2.2-1.1-.9 0-1.6.4-2.1 1.1-.5.7-.8 1.7-.8 3 0 1.2.3 2.1.8 2.8.5.7 1.3 1.1 2.2 1.1.9 0 1.6-.4 2.2-1.1.5-.7.8-1.7.8-3-.1-1.1-.3-2.1-.9-2.8zm10-.5c-.4-.4-.9-.5-1.6-.5-.7 0-1.2.1-1.5.4-.4.3-.6.7-.6 1.1 0 .4.2.8.5 1 .3.2 1 .4 1.9.6.9.2 1.6.4 2.2.7.6.3 1 .6 1.2 1 .3.4.4.9.4 1.4 0 .9-.4 1.7-1.1 2.3-.7.6-1.7.8-2.9.8-.8 0-1.6-.1-2.2-.4-.6-.3-1.2-.7-1.5-1.2-.4-.5-.5-1.1-.5-1.7h1.8c0 .6.3 1.1.7 1.4.4.4 1 .5 1.8.5.7 0 1.2-.1 1.6-.4.4-.3.6-.6.6-1.1 0-.5-.2-.9-.5-1.1-.4-.3-1-.5-1.9-.7-.9-.2-1.6-.4-2.2-.7-.5-.3-.9-.6-1.2-1-.3-.4-.4-.8-.4-1.3 0-.9.4-1.6 1.1-2.2.7-.6 1.7-.9 2.8-.9 1.2 0 2.2.3 2.9.9.7.6 1.1 1.4 1.1 2.4h-1.8c0-.5-.2-1-.7-1.3zm12.5 7.4c-.7 1-1.7 1.5-3 1.5s-2.3-.4-3-1.2v5h-1.8V41h1.6l.1 1.2c.7-.9 1.7-1.4 3-1.4s2.3.5 3 1.4c.7.9 1.1 2.3 1.1 4v.2c.1 1.5-.3 2.8-1 3.8zm-1.5-6.9c-.5-.7-1.2-1-2.1-1-1.1 0-1.9.5-2.4 1.4v5c.5 1 1.4 1.4 2.5 1.4.9 0 1.5-.3 2-1s.8-1.7.8-3c0-1.1-.3-2.1-.8-2.8zm6.2 3.4c0 1 .3 1.9.9 2.5.6.6 1.3 1 2.2 1 .6 0 1.2-.1 1.6-.4.4-.3.8-.6 1.2-1l1.1.9c-.9 1.3-2.2 2-4 2-1.4 0-2.6-.5-3.5-1.4-.9-.9-1.3-2.2-1.3-3.7v-.3c0-1 .2-2 .6-2.8.4-.8 1-1.5 1.7-1.9.7-.5 1.5-.7 2.3-.7 1.4 0 2.4.4 3.2 1.3.8.9 1.1 2.2 1.1 3.9v.7h-7.1v-.1zm5.3-1.6c-.1-.9-.3-1.6-.7-2.1-.4-.5-1-.7-1.8-.7-.7 0-1.3.3-1.8.8s-.8 1.3-.9 2.2h5.2v-.2zm9.8-2.2c-.5-.4-1-.7-1.7-.7-.9 0-1.6.3-2.1 1s-.7 1.6-.7 2.8v.3c0 1.2.2 2.1.7 2.8.5.7 1.2 1 2.1 1 .6 0 1.2-.2 1.7-.6.5-.4.7-.9.8-1.5h1.7c0 .6-.2 1.2-.6 1.7-.4.5-.9 1-1.5 1.3-.6.3-1.3.5-2 .5-1.4 0-2.6-.5-3.4-1.4-.8-1-1.3-2.3-1.3-3.9V46c0-1 .2-1.9.6-2.7.4-.8.9-1.4 1.6-1.8.7-.4 1.5-.7 2.5-.7 1.2 0 2.1.4 2.9 1.1.8.7 1.2 1.6 1.2 2.7h-1.7c-.1-.7-.3-1.2-.8-1.7zm7.4 6.9c.2.2.5.3.9.3.2 0 .5 0 .9-.1v1.4c-.5.1-.9.2-1.4.2-.8 0-1.4-.2-1.8-.7-.4-.5-.6-1.2-.6-2.1v-6.5h-1.9V41h1.9v-2.5h1.8V41h2v1.4h-2v6.5c-.1.4 0 .7.2.9zm5.5-10.9c-.2.2-.4.3-.8.3-.3 0-.6-.1-.8-.3-.2-.2-.3-.4-.3-.7s.1-.5.3-.7c.2-.2.4-.3.8-.3.3 0 .6.1.8.3.2.2.3.4.3.7s-.1.5-.3.7zm.1 12.6H837V41h1.8v10.5zm6.9 0h-1.4L840.5 41h1.8l2.7 8 2.6-8h1.8l-3.7 10.5zm6.7-4.8c0 1 .3 1.9.9 2.5.6.6 1.3 1 2.2 1 .6 0 1.2-.1 1.6-.4.4-.3.8-.6 1.2-1l1.1.9c-.9 1.3-2.2 2-4 2-1.4 0-2.6-.5-3.5-1.4-.9-.9-1.3-2.2-1.3-3.7v-.3c0-1 .2-2 .6-2.8.4-.8 1-1.5 1.7-1.9.7-.5 1.5-.7 2.3-.7 1.4 0 2.4.4 3.2 1.3.8.9 1.1 2.2 1.1 3.9v.7h-7.1v-.1zm5.3-1.6c-.1-.9-.3-1.6-.7-2.1-.4-.5-1-.7-1.8-.7-.7 0-1.3.3-1.8.8s-.8 1.3-.9 2.2h5.2v-.2zm-79.4 30.2v-6.9c0-.7-.2-1.3-.5-1.7-.3-.4-.9-.6-1.7-.6-.7 0-1.2.2-1.7.6-.4.4-.7.9-.8 1.6v7h-1.8v-6.9c0-1.5-.7-2.3-2.2-2.3-1.2 0-2 .5-2.4 1.5v7.7h-1.8V64.8h1.7V66c.8-.9 1.8-1.4 3.1-1.4 1.5 0 2.5.6 3 1.7.3-.5.8-.9 1.4-1.2.6-.3 1.2-.5 2-.5 2.3 0 3.5 1.2 3.5 3.7v7h-1.8zm5.9-4.8c0 1 .3 1.9.9 2.5.6.6 1.3 1 2.2 1 .6 0 1.2-.1 1.6-.4.4-.3.8-.6 1.2-1l1.1.9c-.9 1.3-2.2 2-4 2-1.4 0-2.6-.5-3.5-1.4-.9-.9-1.3-2.2-1.3-3.7V70c0-1 .2-2 .6-2.8.4-.8 1-1.5 1.7-1.9.7-.5 1.5-.7 2.3-.7 1.4 0 2.4.4 3.2 1.3.8.9 1.1 2.2 1.1 3.9v.7h-7.1zm5.3-1.6c-.1-.9-.3-1.6-.7-2.1-.4-.5-1-.8-1.8-.8-.7 0-1.3.3-1.8.8s-.8 1.3-.9 2.2h5.2v-.1zm5.3 1.6c0 1 .3 1.9.9 2.5.6.6 1.3 1 2.2 1 .6 0 1.2-.1 1.6-.4.4-.3.8-.6 1.2-1l1.1.9c-.9 1.3-2.2 2-4 2-1.4 0-2.6-.5-3.5-1.4-.9-.9-1.3-2.2-1.3-3.7V70c0-1 .2-2 .6-2.8.4-.8 1-1.5 1.7-1.9.7-.5 1.5-.7 2.3-.7 1.4 0 2.4.4 3.2 1.3.8.9 1.1 2.2 1.1 3.9v.7h-7.1zm5.3-1.6c-.1-.9-.3-1.6-.7-2.1-.4-.5-1-.8-1.8-.8-.7 0-1.3.3-1.8.8s-.8 1.3-.9 2.2h5.2v-.1zm6.6 4.7c.2.2.5.3.9.3.2 0 .5 0 .9-.1v1.4c-.5.1-.9.2-1.4.2-.8 0-1.4-.2-1.8-.7-.4-.5-.6-1.2-.6-2.1v-6.5h-1.9v-1.4h1.9v-2.5h1.8v2.5h2v1.4h-2v6.5c0 .5.1.8.2 1zm5.5-10.9c-.2.2-.4.3-.8.3s-.6-.1-.8-.3c-.2-.2-.3-.4-.3-.7s.1-.5.3-.7c.2-.2.4-.3.8-.3s.6.1.8.3c.2.2.3.4.3.7s-.1.5-.3.7zm.1 12.6h-1.8V64.8h1.8v10.5zm9.3 0v-6.9c0-.8-.2-1.3-.5-1.7-.3-.4-.9-.5-1.6-.5-.6 0-1.1.2-1.5.5-.4.3-.8.7-1 1.2v7.5h-1.8V64.8h1.7l.1 1.3c.8-1 1.8-1.5 3.1-1.5 2.2 0 3.3 1.2 3.4 3.7v6.9h-1.9v.1zm11.9 2.9c-.8.8-1.9 1.2-3.2 1.2-.8 0-1.5-.2-2.2-.5-.7-.3-1.3-.8-1.7-1.3l.9-1.1c.8.9 1.7 1.4 2.8 1.4.9 0 1.6-.2 2-.7.5-.5.7-1.2.7-2.1v-.9c-.7.8-1.7 1.2-2.9 1.2s-2.2-.5-3-1.5c-.8-1-1.1-2.3-1.1-4 0-1.6.4-2.9 1.1-3.9.8-1 1.8-1.4 3-1.4 1.3 0 2.3.5 3 1.4l.1-1.2h1.6V75c.1 1.4-.3 2.4-1.1 3.2zm-.6-10.6c-.6-1-1.4-1.5-2.5-1.5-.9 0-1.6.3-2 1-.5.7-.7 1.7-.7 3 0 1.2.2 2.1.7 2.8.5.7 1.2 1 2 1 1.1 0 2-.5 2.5-1.5v-4.8z"
     id="path20"
     style="fill:#f9f9f9;fill-opacity:0.70560747" />
  <path
     fill="#43B3E6"
     d="M851.1 214.5c-5.6 0-10.1-4.4-10.1-9.8s4.5-9.8 10.1-9.8 10.1 4.4 10.1 9.8-4.5 9.8-10.1 9.8zm-104.7 0c-5.6 0-10.1-4.4-10.1-9.8s4.5-9.8 10.1-9.8 10.1 4.4 10.1 9.8-4.5 9.8-10.1 9.8zm51.8-3.9c-5.6 0-10.1-4.4-10.1-9.8s4.5-9.8 10.1-9.8 10.1 4.4 10.1 9.8-4.5 9.8-10.1 9.8zm9.2 13.6V239h-17.8v-15.1c-3.7 4-3.8 10.7-3.8 10.7s-.3 2.2-3.8 2.7c-3.5.4-3.8-3.9-3.8-3.9s0-21.6 19.9-21.6 20.2 22.2 20.2 22.2-.3 3.1-3.5 3.8c-3.2.7-4.1-3.3-4.1-3.3-.2-7.1-3.3-10.3-3.3-10.3m36 22.9v-14.2l-6.7 6.5H825s-2.6 0-2.6-3.6 2.9-4.1 2.9-4.1h8.5l13.7-14.5s2.2-2.1 6.7-.3 4.4 6.2 4.4 6.2v24h-15.2zm-70.8-7.7h-11.7l-6.7-6.5v14.2H739v-23.9s-.1-4.4 4.4-6.2c4.5-1.8 6.7.3 6.7.3l13.8 14.5h8.5s2.9.6 2.9 4.1c-.1 3.5-2.7 3.5-2.7 3.5z"
     id="path22" />
  <path
     fill="#546E7A"
     d="M759.7 246.8v-3.3s-.2-1.8 1.8-1.8h72.8s1.5.6 1.5 1.8v3.3h-76.1zm103 .3v-25.5s1.1-2.7 3.2-2.7 3.2 2.4 3.2 2.4v25.8h-6.4zm-134.6 0v-25.5s1.1-2.7 3.2-2.7 3.2 2.4 3.2 2.4v25.8h-6.4z"
     id="path24" />
  <path
     fill-rule="evenodd"
     clip-rule="evenodd"
     fill="#00ACC1"
     d="M840.2 135.2c0-12.2-17.3-22.2-38.7-22.2-21.4 0-38.7 9.9-38.7 22.2 0 10.5 12.7 19.2 29.7 21.6.6.8 5.4 10.8 5.4 10.8s5.1-9.4 5.9-10.3c20.3-.7 36.4-10.3 36.4-22.1z"
     id="path26" />
  <path
     fill-rule="evenodd"
     clip-rule="evenodd"
     fill="#80CBC4"
     d="M714.6 156.5c0-12.2 17.3-22.2 38.7-22.2 21.4 0 38.7 9.9 38.7 22.2 0 10.5-12.7 19.2-29.7 21.6-4.9 7.7-10.4 9.8-14 10.8 3.6-2.9 3.6-5.7 2.7-10.3-20.4-.7-36.4-10.3-36.4-22.1z"
     id="path28" />
  <path
     fill-rule="evenodd"
     clip-rule="evenodd"
     fill="#35C2D6"
     d="M881.7 156.5c0-12.2-17.3-22.2-38.7-22.2-21.4 0-38.7 9.9-38.7 22.2 0 10.5 12.7 19.2 29.7 21.6 4.9 7.7 10.4 9.8 14 10.8-3.6-2.9-3.6-5.7-2.7-10.3 20.3-.7 36.4-10.3 36.4-22.1z"
     id="path30" />
  <path
     fill="#46B6E5"
     d="M962.9 362.7h-36.2v9.4h34.6v70.7h-52v-10.7h-9v17.6c0 3.5 2.9 6.4 6.4 6.4H963c3.5 0 6.4-2.9 6.4-6.4V369c-.1-3.4-2.9-6.3-6.5-6.3z"
     id="path32" />
  <g
     fill="#46B6E5"
     id="g36">
    <path
       d="M921.1 343.9H820.8c-3.1 0-5.6 2.5-5.6 5.6v50.3h6.8v-43.3c0-3.1 2.5-5.6 5.6-5.6h87c3.1 0 5.6 2.5 5.6 5.6v52c0 3.1-2.5 5.6-5.6 5.6h-80.3v18h86.8c3.1 0 5.6-2.5 5.6-5.6v-77c0-3.1-2.5-5.6-5.6-5.6zM884.4 434.8h-27.8v10.6l-12.3 10.7h53l-12.9-10.7z"
       id="path34" />
  </g>
  <path
     fill="#46B6E5"
     d="M830.8 399.8H802.1c-1.9 0-3.5 1.6-3.5 3.5v49.3c0 1.9 1.6 3.5 3.5 3.5h28.7c1.9 0 3.5-1.6 3.5-3.5v-49.3c0-2-1.6-3.5-3.5-3.5zm-21.2 3.3h13.7c.7 0 1.3.6 1.3 1.3 0 .7-.6 1.3-1.3 1.3h-13.7c-.7 0-1.3-.6-1.3-1.3 0-.7.6-1.3 1.3-1.3zm6.8 52.1c-1.4 0-2.5-1.1-2.5-2.5s1.1-2.5 2.5-2.5 2.5 1.1 2.5 2.5c.1 1.4-1.1 2.5-2.5 2.5zm12.9-41.1v34.7h-25.8v-39.7H829.4v5z"
     id="path38" />
</svg>
